<?xml version="1.0" standalone="no"?>
<!DOCTYPE svg PUBLIC "-//W3C//DTD SVG 20010904//EN"
 "http://www.w3.org/TR/2001/REC-SVG-20010904/DTD/svg10.dtd">
<svg version="1.0" xmlns="http://www.w3.org/2000/svg"
 width="409.000000pt" height="409.000000pt" viewBox="0 0 409.000000 409.000000"
 preserveAspectRatio="xMidYMid meet">
<metadata>
Created by potrace 1.14, written by Peter Selinger 2001-2017
</metadata>
<g transform="translate(0.000000,409.000000) scale(0.100000,-0.100000)"
fill="#000000" stroke="none">
<path d="M1743 3870 c-57 -34 -67 -36 -110 -29 -65 10 -168 5 -221 -11 -61
-19 -126 -79 -152 -143 -18 -42 -26 -52 -47 -54 -14 0 -29 -5 -35 -11 -6 -6 0
-8 19 -5 l28 4 -27 -21 c-33 -26 -38 -48 -6 -26 12 9 25 16 28 16 3 0 5 -28 6
-63 0 -47 7 -75 27 -114 19 -37 25 -60 21 -81 -8 -39 11 -72 41 -72 13 0 27 4
30 10 3 5 20 -6 36 -25 37 -42 122 -85 172 -87 20 -1 37 -2 37 -4 0 -1 -22
-16 -48 -33 l-49 -31 -84 25 c-78 23 -85 23 -96 8 -7 -9 -13 -20 -13 -23 0 -4
-41 3 -91 14 -85 20 -92 23 -104 54 -14 33 -33 40 -52 21 -8 -8 -13 -8 -17 0
-11 17 -56 14 -56 -4 0 -8 -4 -15 -10 -15 -5 0 -10 -9 -10 -19 0 -11 -4 -23
-10 -26 -9 -6 -3 -64 9 -77 16 -16 93 -15 128 3 20 10 39 17 42 15 3 -2 37 -7
76 -11 38 -4 72 -8 76 -10 3 -2 4 -18 1 -36 l-5 -32 64 7 c97 11 163 18 174
20 12 1 83 -202 80 -229 -15 -102 -15 -115 -5 -115 8 0 7 -6 -1 -21 -9 -17
-13 -19 -19 -8 -5 7 -6 17 -4 21 3 4 1 8 -4 8 -5 0 -23 26 -39 58 -25 51 -81
150 -90 161 -2 3 -8 0 -13 -5 -7 -7 6 -38 39 -94 28 -46 48 -87 45 -92 -3 -4
-1 -8 4 -8 6 0 19 -17 30 -38 l19 -38 -38 -38 c-24 -23 -43 -35 -51 -30 -7 4
-10 4 -6 -1 4 -4 2 -15 -5 -23 -9 -13 -9 -14 1 -8 6 4 12 3 12 -1 0 -5 -6 -15
-12 -22 -8 -9 -8 -11 -2 -8 7 4 15 0 18 -9 5 -12 2 -15 -11 -10 -17 6 -17 5
-1 -8 17 -12 17 -14 -2 -31 -20 -18 -21 -18 -41 3 -11 12 -16 22 -10 22 5 0
11 7 15 15 4 12 2 13 -14 3 -16 -11 -22 -9 -34 7 -8 11 -12 24 -9 29 4 5 2 6
-4 3 -9 -6 -94 78 -253 249 -190 203 -199 211 -209 201 -6 -6 -11 -16 -11 -22
0 -5 99 -109 219 -229 121 -121 217 -224 214 -229 -3 -6 -2 -7 4 -4 6 4 29
-14 52 -38 23 -25 38 -45 32 -45 -5 0 -16 9 -24 20 -8 11 -17 17 -20 14 -4 -4
-9 1 -13 10 -4 10 -18 16 -36 16 -38 0 -71 -18 -64 -35 3 -8 0 -16 -7 -19 -9
-3 -9 -5 1 -5 6 -1 12 -9 12 -18 0 -10 11 -38 25 -62 29 -50 30 -57 10 -65
-19 -7 -66 14 -59 26 3 5 2 8 -3 7 -21 -3 -54 15 -49 27 3 7 0 16 -6 20 -7 4
-8 3 -4 -4 14 -23 -16 -12 -75 28 -33 22 -62 40 -65 40 -2 0 -22 11 -44 25
-25 16 -41 21 -46 14 -3 -6 -4 -12 -2 -14 10 -11 273 -165 281 -165 4 0 5 -6
1 -12 -4 -7 -4 -10 1 -6 9 9 56 -14 74 -36 11 -13 10 -17 -4 -22 -21 -8 -40
17 -22 28 8 5 8 8 1 8 -18 0 -24 -12 -14 -31 10 -18 -5 -69 -20 -69 -4 0 -7
-12 -7 -26 0 -14 2 -22 6 -18 3 5 17 10 30 12 20 2 22 0 11 -13 -7 -8 -15 -13
-19 -11 -3 2 -17 -1 -30 -8 -15 -9 -20 -16 -12 -20 6 -4 11 -2 11 4 0 6 5 8
12 3 7 -4 18 -8 23 -9 6 -1 17 -3 25 -5 15 -4 21 18 10 36 -3 6 -5 16 -4 23 1
6 2 18 3 25 1 8 4 7 11 -3 6 -10 10 -11 10 -2 0 20 2 26 11 43 11 21 0 32 -18
18 -8 -7 -13 -8 -13 -1 0 5 7 15 15 22 8 7 15 8 15 4 0 -5 10 -14 23 -19 12
-6 22 -17 22 -25 0 -8 7 -20 15 -26 11 -9 17 -8 27 5 7 9 12 12 12 6 0 -5 -6
-19 -14 -29 -8 -10 -12 -23 -9 -27 3 -5 -3 -23 -12 -40 -15 -30 -15 -31 1 -26
11 5 14 3 9 -5 -5 -7 -2 -9 7 -6 9 4 15 -1 15 -12 0 -16 -3 -16 -28 3 -26 19
-26 21 -12 49 20 38 13 45 -13 14 -12 -13 -19 -27 -16 -29 2 -3 -5 -11 -17
-17 -18 -9 -24 -9 -30 0 -6 9 -9 9 -15 1 -5 -8 -11 -9 -19 -2 -7 6 -21 12 -32
15 -74 15 -85 19 -72 28 8 6 1 7 -21 3 -25 -5 -32 -4 -26 5 5 9 1 10 -15 5
-12 -4 -20 -3 -17 1 3 5 -7 9 -21 10 -15 1 -65 13 -112 27 -435 133 -493 149
-501 135 -17 -27 -59 -13 399 -137 117 -31 209 -61 205 -65 -4 -4 0 -4 10 0
26 9 52 -3 39 -19 -8 -10 -6 -13 7 -13 12 0 17 5 13 14 -4 11 -1 12 14 4 10
-5 22 -11 26 -12 4 -1 17 -4 28 -7 11 -3 20 -10 20 -17 0 -6 5 -4 10 4 6 9 10
11 10 3 0 -7 6 -10 14 -7 8 3 17 1 20 -5 4 -6 13 -8 20 -5 8 3 17 0 21 -5 3
-6 11 -8 17 -5 7 4 8 2 4 -5 -5 -8 2 -10 26 -7 18 3 27 3 21 0 -7 -3 -13 -10
-13 -15 0 -6 5 -7 12 -3 7 4 8 3 4 -5 -4 -6 -11 -9 -16 -6 -5 3 -16 -5 -24
-17 -12 -17 -16 -19 -16 -6 0 9 7 18 15 22 8 3 15 10 15 16 0 8 -6 8 -20 0
-11 -6 -20 -17 -20 -25 0 -8 -7 -18 -15 -22 -10 -6 -11 -13 -5 -23 7 -10 10
-11 10 -2 0 6 5 12 12 12 9 0 9 -3 0 -12 -17 -17 -15 -33 2 -19 11 9 16 9 22
0 4 -7 0 -17 -9 -24 -9 -7 -13 -16 -9 -21 4 -4 -1 -2 -10 5 -10 7 -18 9 -18 4
0 -13 -83 -11 -92 2 -5 7 -11 6 -15 -1 -9 -11 -52 -12 -70 -1 -7 4 -14 3 -18
-3 -4 -6 -11 -8 -16 -4 -5 3 -6 11 -2 17 4 7 0 6 -10 -2 -14 -11 -20 -11 -34
0 -12 10 -15 10 -9 1 6 -10 -21 -12 -130 -10 -103 2 -138 0 -141 -9 -3 -9 12
-13 54 -14 197 -2 233 -5 233 -14 0 -7 3 -7 8 0 4 6 19 10 35 11 19 1 24 -2
18 -10 -7 -8 -4 -12 8 -12 10 0 17 5 15 11 -5 12 61 13 73 2 9 -10 25 -9 19 1
-10 16 33 6 54 -13 15 -14 19 -15 15 -4 -4 10 0 16 8 16 9 0 12 -7 9 -19 -2
-11 -10 -17 -18 -14 -7 3 -16 1 -19 -3 -3 -5 3 -12 12 -15 16 -7 43 16 43 35
0 4 7 10 16 13 13 5 14 4 6 -7 -8 -9 -8 -18 -2 -25 7 -9 7 -9 -2 -2 -8 6 -16
4 -24 -8 -17 -21 -18 -40 -2 -24 7 7 17 12 23 12 5 0 2 -5 -7 -11 -9 -5 -15
-16 -12 -24 4 -8 11 -12 18 -8 12 8 -13 -28 -29 -39 -6 -5 -4 -12 5 -18 13
-10 13 -11 0 -9 -8 1 -23 -1 -32 -5 -10 -5 -25 -5 -34 -2 -15 6 -14 9 2 34 13
20 13 24 2 15 -13 -11 -15 -9 -13 15 1 15 -6 33 -14 40 -9 8 -10 11 -4 7 9 -4
11 -1 7 9 -3 9 -1 16 5 16 6 0 10 -3 10 -7 -1 -5 -1 -15 0 -23 1 -13 2 -13 11
0 5 9 5 19 0 26 -6 6 -6 14 -2 19 4 4 -2 3 -14 -3 -16 -9 -22 -7 -32 9 -12 19
-13 19 -35 -8 -23 -28 -35 -79 -16 -67 5 3 7 15 3 27 -6 19 -5 20 10 8 10 -9
16 -10 16 -2 0 6 4 11 9 11 5 0 9 -11 9 -25 0 -20 -3 -23 -14 -14 -13 11 -19
2 -15 -23 0 -5 -6 -8 -14 -8 -8 0 -15 -5 -15 -10 0 -7 7 -7 20 0 11 6 18 15
15 21 -4 5 3 8 14 6 30 -5 35 -14 12 -22 -12 -3 -21 -11 -21 -16 0 -5 -5 -8
-11 -7 -6 2 -14 -4 -16 -12 -4 -13 -3 -13 6 0 6 8 11 11 11 6 0 -5 9 -1 19 8
24 22 39 15 39 -19 0 -17 -5 -24 -13 -21 -7 2 -18 -1 -24 -7 -8 -8 -11 -8 -11
0 0 7 10 19 22 27 12 9 19 18 16 21 -9 10 -59 -45 -52 -56 3 -6 -2 -10 -12 -8
-11 1 -26 0 -34 -4 -15 -5 -60 -17 -90 -23 -8 -2 -98 -23 -200 -48 -102 -24
-228 -54 -280 -66 -52 -12 -101 -23 -108 -26 -13 -4 -17 -30 -4 -37 4 -3 81
15 172 39 181 49 503 132 535 138 11 2 27 7 35 10 11 5 16 0 17 -15 1 -16 -1
-18 -11 -10 -7 6 -16 8 -19 4 -10 -10 -8 -33 3 -33 5 0 6 8 3 18 -6 15 -5 15
10 3 9 -7 18 -10 19 -5 0 5 2 14 3 19 2 6 3 15 4 22 0 6 9 10 19 9 9 -2 20 2
24 8 5 7 8 7 8 -3 0 -11 3 -11 16 0 9 7 26 14 37 16 17 2 19 1 7 -6 -8 -5 -17
-8 -21 -5 -4 2 -10 0 -13 -5 -3 -5 1 -11 9 -15 8 -3 17 -1 20 4 10 16 28 12
22 -4 -4 -9 5 -21 20 -31 l25 -17 -21 -15 c-12 -8 -18 -19 -15 -25 4 -7 10 -5
16 6 5 9 17 16 28 16 13 0 17 6 14 23 -4 20 -4 20 5 2 11 -25 5 -35 -20 -35
-27 0 -24 -20 4 -21 17 -1 18 -2 4 -6 -9 -2 -14 -9 -11 -15 4 -6 3 -8 -3 -5
-5 4 -19 -2 -31 -13 -12 -11 -28 -17 -37 -14 -9 4 -15 3 -13 -2 2 -5 -1 -10
-6 -11 -5 -1 -12 -5 -15 -11 -10 -15 -99 -61 -105 -55 -3 4 -6 2 -6 -4 0 -6
-20 -19 -45 -30 -25 -10 -45 -21 -45 -25 0 -5 -4 -8 -9 -8 -8 0 -148 -76 -160
-86 -3 -3 0 -9 5 -14 6 -6 48 13 113 50 57 33 108 57 114 53 5 -3 7 -1 4 4
-10 17 24 25 42 11 14 -11 14 -11 4 2 -10 13 -4 20 35 40 26 13 64 35 85 47
20 13 37 20 37 16 0 -5 5 -1 11 7 8 12 9 10 4 -8 -6 -21 -5 -22 14 -10 13 8
17 16 11 22 -6 6 -10 15 -10 20 0 6 5 3 11 -6 8 -14 14 -15 34 -6 13 6 22 15
18 21 -4 6 -1 7 7 2 10 -6 9 -11 -5 -22 -11 -7 -15 -13 -10 -13 5 0 -2 -11
-15 -25 -28 -30 -15 -34 16 -4 22 21 45 19 43 -4 0 -9 -2 -9 -6 1 -8 20 -22
14 -16 -8 3 -11 9 -17 14 -14 5 3 9 0 9 -6 0 -7 -8 -9 -22 -4 -21 6 -22 5 -8
-11 11 -14 12 -17 1 -11 -9 6 -12 4 -9 -5 5 -16 26 -19 51 -7 10 5 -1 -11 -25
-35 -38 -40 -44 -43 -55 -29 -7 9 -13 21 -13 26 1 6 7 0 16 -14 l15 -25 -7 24
c-5 20 -3 23 12 17 13 -4 12 0 -6 14 -21 17 -22 19 -5 15 16 -4 15 -3 -3 6
-13 7 -21 18 -18 26 4 9 1 11 -6 7 -7 -5 -8 -3 -3 6 6 9 4 11 -5 5 -9 -6 -11
-4 -5 5 6 9 4 11 -5 5 -9 -6 -11 -4 -5 6 5 8 5 11 0 7 -4 -4 -17 -3 -28 3 -15
9 -18 8 -12 -2 5 -6 4 -10 -1 -7 -5 3 -18 2 -29 -3 -17 -6 -17 -8 -2 -8 21 -1
22 -11 1 -37 -15 -19 -15 -18 -11 4 3 12 1 22 -4 22 -10 0 -12 -33 -3 -43 10
-10 34 4 34 20 0 8 5 11 10 8 7 -4 7 -12 0 -25 -12 -23 -2 -54 14 -42 16 13
47 11 43 -2 -2 -6 -13 -10 -23 -8 -18 3 -18 3 1 -11 17 -13 18 -17 5 -33 -9
-11 -10 -15 -2 -10 18 10 15 -14 -4 -35 -9 -10 -23 -15 -32 -12 -10 4 -14 3
-10 -2 4 -4 3 -14 -3 -22 -10 -11 -15 -11 -28 -1 -14 11 -14 11 -4 -3 11 -13
-8 -35 -125 -146 -75 -72 -150 -143 -167 -158 -16 -15 -60 -57 -98 -93 -60
-57 -65 -66 -51 -77 15 -10 48 19 251 219 129 127 240 230 248 228 7 -1 16 2
20 8 4 6 -1 7 -12 4 -10 -4 -1 10 20 30 21 20 43 36 48 36 6 0 8 4 4 9 -6 11
35 42 47 35 17 -11 7 -25 -14 -20 -13 3 -17 3 -9 0 11 -5 6 -14 -20 -35 -19
-16 -28 -29 -21 -29 6 0 12 5 12 10 0 6 7 10 15 10 8 0 15 5 15 12 0 6 6 3 14
-7 8 -11 12 -25 9 -31 -2 -7 5 -18 16 -26 12 -8 18 -18 14 -21 -3 -4 -1 -7 5
-7 6 0 13 9 17 19 4 14 11 18 23 14 10 -4 12 -8 4 -11 -8 -2 -5 -10 8 -20 19
-15 20 -19 6 -37 -15 -20 -15 -20 -10 1 7 26 -13 41 -29 24 -9 -10 -8 -12 5
-7 14 5 17 0 15 -23 -1 -17 -8 -32 -15 -35 -7 -3 -11 -9 -7 -15 3 -5 -3 -18
-15 -30 -11 -11 -18 -20 -15 -20 2 0 -24 -47 -60 -105 -70 -112 -76 -125 -60
-131 6 -3 30 30 54 71 23 41 47 75 52 75 6 0 8 3 6 8 -3 4 17 43 44 87 27 44
52 88 55 98 4 9 11 17 16 17 5 0 6 -5 2 -12 -4 -6 -3 -8 4 -4 5 3 12 1 14 -5
3 -9 9 -9 26 0 12 6 19 17 16 24 -3 8 4 13 17 14 16 1 18 -1 10 -11 -6 -7 -9
-15 -6 -18 3 -2 -6 -10 -19 -17 -17 -9 -23 -21 -22 -41 0 -16 4 -26 9 -23 4 2
5 8 2 13 -3 4 2 10 10 14 8 3 17 1 20 -4 4 -6 12 -10 18 -9 9 0 8 2 -1 6 -6 2
-10 9 -7 13 3 5 -7 7 -22 4 -23 -4 -26 -3 -15 8 7 7 20 13 30 13 9 0 16 5 15
12 -1 6 5 14 13 17 16 6 16 6 -3 -42 -3 -6 0 -12 7 -12 6 0 8 -6 4 -12 -6 -10
-4 -10 7 0 7 6 17 12 22 12 6 0 5 -5 0 -12 -13 -16 -13 -48 -1 -48 5 0 7 9 3
19 -4 13 0 23 12 30 10 6 12 11 6 11 -7 0 -13 5 -13 11 0 5 5 7 12 3 7 -4 8
-3 4 4 -8 13 -36 5 -36 -10 0 -5 -5 -6 -11 -3 -6 5 -3 13 10 22 12 8 21 20 21
26 0 8 -3 8 -9 -1 -7 -11 -9 -11 -14 1 -3 8 -1 19 5 25 6 6 6 12 0 16 -6 3
-13 -3 -17 -14 -6 -18 -26 -29 -24 -13 3 21 -2 33 -13 31 -7 -2 -12 3 -10 10
1 6 -3 12 -9 12 -6 0 -8 8 -5 17 5 15 3 15 -9 -2 -14 -17 -14 -20 0 -28 9 -4
13 -13 9 -18 -3 -6 -12 -3 -20 8 -13 16 -14 16 -8 0 4 -11 1 -17 -7 -17 -8 -1
-3 -7 11 -15 24 -13 24 -14 3 -12 -24 1 -42 29 -24 35 6 2 9 7 6 12 -3 4 8 22
24 39 15 16 26 33 23 36 -3 3 0 5 7 5 8 0 10 -7 5 -22 -6 -20 -5 -21 9 -10 11
9 17 10 22 2 4 -6 13 -9 21 -6 25 10 45 -5 38 -28 -6 -17 -4 -19 7 -9 12 10
17 8 27 -8 7 -10 8 -19 4 -19 -4 0 -16 -6 -26 -13 -19 -14 -12 -51 8 -40 8 4
8 2 -1 -7 -6 -7 -9 -19 -6 -26 3 -8 0 -14 -6 -14 -6 0 -11 -16 -11 -35 0 -19
-5 -35 -11 -35 -5 0 -7 6 -3 13 4 6 3 8 -1 4 -11 -10 -16 -39 -5 -32 4 3 1
-16 -7 -43 -8 -26 -16 -55 -18 -64 -2 -9 -31 -108 -65 -220 -34 -112 -63 -207
-64 -213 -1 -5 -10 -36 -21 -68 -16 -50 -16 -60 -4 -68 8 -5 17 -9 20 -9 4 0
16 37 28 83 12 45 28 105 35 132 8 28 26 93 40 145 84 307 91 330 107 317 12
-10 12 -10 2 3 -14 16 -18 44 -5 36 5 -3 8 5 7 17 -1 12 4 37 11 55 7 18 14
36 16 40 2 4 6 6 10 5 3 -1 5 13 4 33 -2 19 1 37 7 41 6 3 7 1 4 -4 -4 -6 0
-13 8 -17 8 -3 17 -1 20 4 4 6 1 10 -6 10 -7 0 -10 3 -6 6 3 3 11 3 17 -1 8
-5 8 -11 -1 -21 -10 -12 -7 -14 12 -12 20 3 24 -1 21 -21 -2 -20 0 -22 12 -12
17 15 10 39 -19 64 -19 18 -19 18 8 1 26 -16 29 -21 31 -53 1 -8 6 -16 13 -18
8 -3 10 3 7 19 -10 44 -9 51 12 53 11 1 21 -4 21 -11 0 -10 -5 -10 -20 -2 -17
9 -19 8 -14 -7 4 -9 7 -19 7 -21 0 -3 4 -3 9 0 5 3 11 -1 14 -9 4 -10 1 -12
-11 -8 -15 6 -15 5 -2 -11 14 -18 15 -63 6 -465 -1 -35 3 -56 12 -58 13 -5 14
6 14 124 0 35 4 61 8 58 5 -3 12 0 16 6 4 7 3 9 -4 5 -17 -10 -25 13 -10 31 9
12 9 14 1 9 -14 -8 -13 50 1 73 6 9 5 12 -1 8 -12 -8 -11 76 2 85 6 4 19 5 30
2 17 -4 18 -3 5 6 -12 10 -11 11 7 7 15 -3 20 -1 16 9 -4 10 0 12 11 8 9 -3
17 -1 17 5 3 26 4 30 11 37 5 4 8 1 8 -7 0 -11 2 -11 10 1 14 22 12 29 -9 27
-11 0 -17 -5 -14 -11 4 -5 1 -6 -7 -1 -9 5 -11 4 -6 -3 4 -7 2 -12 -3 -12 -6
0 -11 6 -11 13 -1 7 -6 4 -15 -7 -7 -10 -18 -15 -24 -12 -5 4 -13 1 -16 -5
-11 -17 1 -22 24 -9 13 7 21 7 21 1 0 -15 -38 -33 -52 -25 -7 5 -8 3 -3 -6 5
-8 4 -11 -1 -7 -11 7 -11 48 0 66 5 8 3 17 -5 23 -10 7 -8 8 7 4 14 -5 21 -2
21 9 0 10 -7 14 -21 10 -12 -3 -15 -2 -8 1 6 3 9 11 6 16 -5 7 -2 8 5 3 7 -4
22 2 37 16 19 18 27 20 36 11 17 -17 33 -15 19 2 -10 12 -8 17 9 26 12 6 24 9
28 6 3 -3 0 -6 -8 -6 -10 0 -10 -3 -1 -14 7 -8 11 -20 10 -28 -3 -26 1 -36 17
-34 9 0 18 -6 20 -14 2 -8 7 -32 13 -53 7 -30 6 -39 -8 -47 -14 -9 -14 -10 3
-8 19 3 33 -31 51 -122 2 -14 9 -40 14 -57 5 -18 8 -33 6 -33 -2 0 3 -17 12
-37 8 -21 14 -39 13 -41 -2 -3 7 -48 37 -172 13 -58 27 -114 29 -125 25 -123
36 -147 63 -131 5 4 -7 66 -30 154 -22 81 -57 217 -79 303 -22 86 -43 164 -46
174 -6 14 -4 16 7 11 8 -4 5 0 -5 8 -11 9 -17 16 -13 16 4 0 1 15 -7 34 -12
30 -12 35 0 40 8 3 14 11 14 18 0 10 -2 10 -9 -1 -6 -9 -11 -10 -15 -3 -4 6 2
16 13 21 26 14 31 14 25 -3 -3 -8 -1 -17 5 -21 7 -3 8 0 5 10 -5 11 -2 14 10
9 8 -3 14 -11 13 -17 -1 -6 7 -12 18 -13 15 -2 16 -2 2 2 -9 3 -15 9 -12 14 3
5 -3 14 -14 20 -12 6 -18 16 -15 25 4 8 10 12 15 9 5 -3 7 -9 4 -14 -3 -4 2
-11 10 -14 12 -4 13 -2 7 12 -11 19 -5 42 10 42 5 0 7 -10 4 -22 -3 -13 -3
-18 0 -11 4 10 8 10 19 0 7 -7 11 -15 9 -18 -2 -3 3 -6 11 -6 8 0 13 2 10 5
-8 8 15 42 30 42 7 0 17 -9 20 -21 4 -12 18 -37 31 -56 13 -20 21 -39 18 -44
-3 -5 -2 -9 3 -9 4 0 35 -50 68 -110 33 -61 64 -108 70 -106 5 2 9 8 8 14 -3
12 -178 326 -199 356 -7 10 -10 25 -7 34 5 11 3 13 -7 7 -8 -5 -11 -4 -6 3 3
6 -1 15 -10 20 -13 7 -14 13 -5 31 7 12 8 21 2 21 -5 0 -11 -5 -13 -12 -3 -8
-6 -7 -10 3 -5 12 1 15 30 15 23 -1 36 -6 35 -13 -2 -7 6 -15 17 -18 11 -4 18
-11 15 -16 -4 -5 -17 -1 -30 8 -16 13 -19 21 -11 26 8 6 7 7 -2 5 -8 -2 -13
-7 -12 -12 1 -5 -4 -12 -10 -16 -9 -5 -9 -9 -1 -14 6 -4 11 -2 11 3 0 6 5 11
11 11 8 0 9 -4 0 -13 -14 -17 -2 -30 15 -16 9 7 14 4 19 -11 4 -13 12 -19 21
-16 7 3 16 1 19 -4 4 -6 1 -10 -6 -10 -7 0 -10 -3 -6 -6 3 -3 11 -3 17 1 8 5
8 11 -1 22 -11 12 -9 14 12 10 13 -2 18 -2 10 0 -12 4 -12 6 0 14 10 6 10 9 2
9 -7 0 -13 5 -13 11 0 5 4 8 9 5 13 -8 21 18 11 35 -5 7 -12 10 -17 6 -4 -5
-2 -12 6 -16 10 -7 10 -9 -2 -14 -11 -4 -14 1 -13 17 2 13 -3 23 -10 23 -6 0
-10 -6 -7 -14 3 -7 0 -13 -7 -13 -6 0 -8 5 -5 10 3 6 1 10 -5 10 -7 0 -10 -7
-6 -17 3 -10 -3 -5 -15 10 -16 21 -26 26 -43 21 -17 -5 -14 0 12 23 17 16 32
34 32 40 0 6 8 17 17 24 9 8 14 10 12 4 -6 -11 26 -47 34 -38 8 8 27 -34 19
-42 -4 -5 2 -5 12 -1 15 5 16 4 8 -7 -7 -7 -7 -18 -2 -27 5 -8 5 -21 0 -30 -5
-9 -5 -22 0 -30 10 -17 1 -42 -13 -33 -6 4 -7 1 -2 -7 12 -19 37 18 26 39 -11
22 -4 39 22 52 12 7 19 9 16 5 -4 -4 26 -39 67 -78 40 -39 70 -76 67 -81 -3
-6 -2 -7 4 -4 5 3 31 -17 58 -46 26 -29 101 -109 166 -178 66 -69 128 -136
139 -149 19 -22 50 -22 50 0 0 5 -80 90 -177 189 -289 291 -323 327 -315 336
4 5 2 5 -4 2 -6 -4 -19 2 -28 12 -15 16 -15 19 2 34 10 10 22 14 25 10 11 -10
8 -23 -4 -21 -6 2 -14 -4 -16 -12 -4 -13 -3 -13 6 0 6 8 11 11 11 6 0 -6 5 -5
12 2 8 8 8 15 -1 25 -6 8 -9 22 -5 31 8 21 25 10 18 -12 -5 -14 -4 -14 4 -2 8
10 8 18 0 28 -8 10 -7 17 4 28 11 11 18 12 22 5 4 -6 2 -11 -3 -11 -6 0 -11
-5 -11 -11 0 -8 4 -8 14 0 11 9 14 6 14 -14 0 -13 -4 -22 -9 -20 -4 3 -13 -5
-19 -17 -9 -20 -9 -21 2 -7 7 9 21 15 30 13 14 -2 16 2 9 14 -4 10 -6 22 -4
29 2 6 -1 14 -8 19 -8 5 -5 13 12 27 l24 19 -27 -16 c-25 -15 -27 -15 -25 4 1
11 6 20 11 20 6 0 6 4 -1 11 -8 8 -17 8 -33 -1 -19 -10 -22 -9 -27 9 -3 12 -9
21 -14 21 -13 0 -11 -14 4 -29 10 -11 9 -12 -2 -6 -10 6 -12 4 -6 -5 6 -9 4
-11 -5 -5 -9 6 -11 4 -5 -5 6 -9 4 -11 -5 -5 -8 5 -11 4 -6 -3 3 -6 2 -13 -4
-17 -6 -4 -8 -11 -5 -16 4 -5 2 -9 -4 -9 -5 0 -11 5 -13 12 -3 7 -7 5 -11 -6
-5 -11 -3 -15 5 -10 6 4 8 3 5 -3 -4 -6 1 -10 10 -9 9 0 18 -6 20 -14 4 -13 3
-13 -6 0 -9 13 -12 13 -28 -2 -16 -17 -16 -17 5 -13 12 2 22 0 22 -6 0 -15
-32 -10 -52 8 -17 15 -17 17 -2 35 19 20 5 25 -14 6 -10 -9 -16 -8 -30 6 -12
12 -13 16 -3 14 7 -2 16 3 19 11 3 8 0 11 -7 7 -6 -4 -11 -2 -11 3 0 6 4 11 9
11 17 0 23 -20 11 -35 -7 -8 -9 -15 -4 -14 18 1 68 35 72 49 4 11 -2 9 -17 -4
-29 -26 -38 -13 -17 27 15 30 16 26 0 -20 -4 -13 0 -11 15 6 12 13 21 18 21
12 0 -19 16 -12 17 8 1 14 -3 18 -13 14 -21 -8 -17 15 6 27 17 9 19 8 13 -7
-6 -15 -4 -16 9 -5 14 11 17 10 23 -7 3 -12 10 -21 15 -21 5 0 7 8 4 17 -4 11
-2 14 3 8 10 -13 41 -32 72 -45 18 -8 21 -14 13 -22 -7 -7 -12 -17 -12 -22 0
-6 5 -3 11 6 8 14 14 15 34 6 14 -6 25 -18 25 -27 0 -14 2 -14 10 -1 9 14 14
7 11 -13 -1 -5 3 -6 8 -3 13 9 73 -29 63 -39 -4 -5 -2 -5 4 -2 6 3 46 -16 90
-43 49 -30 83 -45 88 -40 5 5 8 11 5 13 -15 13 -121 77 -127 77 -5 0 -18 9
-30 20 -12 12 -22 18 -22 15 0 -4 -13 3 -29 14 -16 12 -34 21 -41 21 -6 0 -8
5 -5 10 3 6 -4 10 -16 10 -16 0 -19 3 -11 13 8 10 6 13 -8 13 -10 0 -16 -4
-14 -8 3 -4 -2 -5 -10 -2 -29 11 -15 31 17 25 5 -1 6 3 2 9 -4 7 -12 7 -24 0
-19 -10 -71 7 -71 23 0 5 -4 5 -10 2 -6 -4 -7 1 -3 11 5 13 3 15 -7 9 -8 -5
-11 -4 -7 2 4 6 -6 16 -21 22 l-27 13 20 -23 20 -22 -22 14 c-13 8 -23 19 -23
25 0 11 15 14 97 17 23 1 39 6 36 11 -4 5 -2 7 3 4 5 -3 30 -3 56 1 36 6 51 4
64 -8 17 -15 17 -15 5 2 -8 9 -10 17 -5 18 5 0 18 3 29 6 44 11 91 1 365 -81
157 -47 288 -86 291 -86 4 0 9 8 11 18 5 17 -28 28 -286 98 -267 73 -291 82
-288 101 3 23 -27 47 -76 58 -21 4 -30 11 -25 18 5 9 3 9 -8 1 -16 -14 -48 -4
-68 20 -23 27 -6 28 23 1 15 -14 30 -25 34 -25 4 0 -2 7 -12 15 -11 8 -16 15
-10 15 5 0 -4 8 -21 19 -19 11 -36 15 -46 10 -8 -4 -21 -4 -29 1 -8 5 -18 6
-24 3 -5 -3 -6 -1 -2 5 4 7 3 12 -2 12 -4 0 -8 13 -8 29 0 21 6 32 23 40 14 6
22 7 19 2 -3 -5 1 -11 9 -14 10 -4 12 -1 8 11 -8 22 1 13 16 -16 12 -22 11
-23 -9 -12 -20 11 -21 10 -10 -12 10 -22 10 -22 -4 -4 -8 10 -17 24 -20 30 -3
7 -8 6 -15 -4 -14 -20 -14 -23 5 -46 8 -10 13 -12 9 -4 -5 11 -3 10 7 -2 13
-15 15 -15 26 0 7 9 10 11 6 3 -5 -9 -3 -12 4 -7 6 4 26 0 43 -9 17 -9 28 -12
25 -7 -3 6 0 13 6 16 9 4 8 5 -2 5 -35 -3 -51 2 -45 11 3 6 1 10 -6 10 -19 0
-1 13 23 17 17 3 19 1 8 -12 -7 -9 -8 -15 -2 -15 17 0 22 28 6 40 -10 9 -14 9
-14 1 0 -8 -6 -8 -20 1 -29 18 -25 23 20 24 25 0 36 -3 28 -8 -10 -5 -8 -8 5
-8 12 0 16 -4 11 -12 -4 -8 -3 -10 2 -5 5 5 10 13 10 18 3 22 5 23 14 9 6 -9
10 -11 10 -3 0 7 7 10 15 7 8 -4 12 -11 8 -17 -4 -6 -1 -7 8 -1 8 5 82 9 164
9 118 0 150 3 150 14 0 10 -29 13 -132 14 -120 0 -132 2 -120 16 10 14 10 14
-4 4 -9 -7 -20 -9 -24 -5 -5 4 -6 2 -2 -3 4 -7 -28 -10 -94 -9 -85 1 -102 4
-114 20 -11 14 -14 15 -9 3 3 -10 -1 -19 -10 -22 -9 -4 -15 -2 -13 3 1 5 -6
15 -15 22 -13 10 -15 17 -7 28 9 13 10 13 6 -2 -6 -16 15 -32 27 -21 11 11 6
24 -6 17 -6 -4 -8 -3 -5 3 4 6 0 16 -7 22 -29 24 0 91 40 91 7 0 14 5 16 11 2
5 10 11 18 13 8 1 25 7 36 14 12 6 36 14 55 17 19 3 49 10 68 15 19 5 38 7 43
4 4 -3 8 -1 8 5 0 5 8 10 18 9 9 0 42 7 72 15 30 8 127 32 215 52 241 56 259
61 262 71 11 34 -22 29 -312 -47 -165 -43 -321 -84 -347 -92 -39 -12 -46 -12
-41 -1 3 8 8 12 13 9 8 -5 36 42 29 49 -2 2 -30 22 -61 43 -32 22 -55 43 -52
45 3 3 -7 9 -22 12 l-27 7 43 29 c44 29 66 30 56 3 -3 -8 -1 -11 5 -8 5 4 7
15 4 26 -4 10 -2 19 4 19 5 0 16 3 24 6 11 4 14 -2 11 -28 -2 -18 -6 -38 -8
-44 -3 -7 5 -9 19 -6 15 2 25 12 27 26 4 31 19 26 41 -16 10 -21 23 -38 29
-38 5 0 6 -6 2 -12 -5 -10 -4 -10 7 0 10 10 11 19 2 41 -10 29 -10 29 13 19
35 -16 41 -2 13 28 l-24 27 27 -17 c32 -21 53 -2 23 21 -18 12 -18 13 4 13 19
0 21 3 12 14 -6 8 -25 19 -41 26 -17 7 -30 16 -30 20 0 4 18 15 40 25 22 10
40 21 40 25 0 20 -19 16 -74 -14 -46 -26 -64 -32 -72 -23 -5 7 -25 25 -44 41
-26 21 -34 35 -32 56 2 24 -5 32 -43 54 -25 15 -45 30 -45 33 0 3 22 27 48 52
90 86 300 282 323 302 20 17 21 22 9 29 -8 6 -18 10 -22 10 -4 0 -91 -83 -195
-185 -103 -102 -191 -185 -196 -185 -18 0 -56 33 -50 44 5 8 3 8 -8 -1 -11 -9
-20 -8 -39 2 -17 10 -20 14 -9 15 30 0 99 60 127 110 21 39 31 48 47 44 30 -7
59 28 51 62 -4 14 -16 28 -27 31 -13 4 -18 11 -14 24 3 11 8 29 11 41 4 12 8
46 9 76 1 46 5 56 29 71 57 38 78 103 52 164 -35 84 -149 103 -211 35 -27 -29
-36 -33 -56 -25 -13 5 -35 11 -49 13 -31 5 -170 -22 -184 -36 -22 -22 -23 -7
-5 53 23 76 23 74 0 80 -18 4 -37 -53 -136 -423 -14 -52 -31 -113 -37 -135
-12 -40 -36 -67 -50 -59 -4 3 -5 -2 -2 -11 4 -8 1 -21 -5 -29 -7 -8 -11 -18
-10 -22 4 -23 -3 -34 -21 -34 -11 0 -20 7 -20 15 0 8 -4 15 -10 15 -5 0 -7 -6
-4 -14 4 -10 -2 -12 -20 -9 -14 3 -26 8 -27 12 -9 70 -15 92 -26 90 -4 -1 -18
-1 -31 0 l-23 1 2 145 c3 132 -1 168 -17 153 -3 -3 -6 -39 -6 -79 -1 -41 -5
-82 -11 -93 -5 -11 -5 -16 0 -13 5 3 9 -17 8 -46 l-1 -52 -35 3 c-42 5 -49 9
-44 25 3 7 -9 28 -26 47 -17 19 -34 44 -39 56 -16 40 -50 218 -42 225 4 4 44
26 90 49 45 23 82 45 82 48 0 4 -8 18 -17 31 -16 23 -15 25 13 49 16 13 44 37
61 53 18 16 41 29 52 29 64 0 166 87 120 102 -5 2 -11 12 -13 23 -2 11 -7 20
-12 20 -5 1 -25 11 -44 23 l-35 22 -23 -27 c-12 -16 -28 -27 -36 -25 -21 4
-27 -11 -17 -45 8 -28 4 -36 -56 -101 -62 -68 -66 -71 -87 -57 -21 14 -25 12
-77 -49 -52 -61 -56 -63 -101 -63 l-48 0 32 35 c35 41 63 99 73 155 5 25 12
37 24 37 41 0 55 54 23 83 -10 10 -23 17 -29 17 -6 0 -11 17 -12 38 -1 45 -7
78 -22 115 -11 25 -9 31 16 57 31 33 29 48 -5 30 -18 -10 -16 -5 10 31 16 23
28 44 26 47 -3 2 -20 -7 -38 -21 -57 -42 -60 -40 -28 17 18 31 30 59 28 64 -1
4 -31 -8 -65 -28z m686 -1156 c30 -57 36 -64 74 -88 32 -22 34 -32 7 -39 -13
-3 -18 -1 -13 6 3 7 -2 4 -13 -5 -11 -10 -36 -24 -57 -33 l-37 -15 2 25 c1 14
7 25 13 25 5 0 3 5 -5 10 -13 8 -13 10 2 10 9 0 19 4 22 9 3 5 -2 8 -12 7 -12
-1 -18 8 -20 29 -4 42 -21 83 -38 89 -26 10 -14 26 17 22 26 -2 36 -12 58 -52z
m-273 -163 c-3 -5 1 -11 9 -14 9 -4 12 -1 8 9 -6 15 20 16 45 1 7 -5 12 -3 12
3 0 6 5 8 11 4 8 -4 7 -9 -2 -15 -11 -7 -11 -9 1 -9 12 0 12 -2 2 -9 -8 -4
-13 -11 -13 -15 3 -21 -1 -27 -15 -22 -8 3 -13 2 -10 -2 2 -4 1 -14 -4 -22 -7
-12 -9 -11 -9 5 -1 46 -5 56 -18 50 -8 -3 -17 -5 -20 -5 -2 0 3 -7 11 -16 9
-8 16 -21 16 -27 0 -7 -4 -6 -10 3 -9 13 -11 13 -20 0 -7 -11 -8 -6 -5 18 4
35 4 35 -20 26 -12 -5 -14 -9 -4 -14 9 -6 9 -12 -4 -24 -18 -19 -34 -21 -20
-3 5 6 10 22 11 35 1 19 -2 21 -13 12 -8 -6 -12 -17 -9 -24 3 -7 -2 -19 -11
-26 -9 -7 -15 -8 -15 -2 0 6 6 13 13 15 9 4 9 8 -2 15 -25 17 4 40 44 36 26
-2 33 0 28 12 -3 8 0 14 7 14 6 0 9 -4 6 -9z m-152 -12 c-2 -4 0 -10 5 -13 5
-3 11 1 15 9 3 8 10 15 16 15 6 0 4 -7 -4 -16 -22 -21 -20 -40 2 -23 15 12 16
12 5 -2 -7 -9 -9 -20 -5 -24 4 -5 -8 2 -27 15 -32 22 -33 22 -27 3 7 -21 -16
-39 -35 -27 -6 3 -16 0 -24 -6 -8 -7 -15 -9 -15 -5 0 4 8 14 18 21 14 12 14
13 1 8 -10 -3 -19 1 -23 11 -3 10 -11 13 -18 9 -7 -4 -9 -3 -5 1 4 5 13 10 20
11 38 8 60 14 63 17 6 6 42 2 38 -4z m-112 -53 c3 5 3 3 1 -5 -2 -7 2 -20 8
-27 6 -8 7 -14 2 -14 -5 0 -17 16 -26 35 -20 42 -22 60 -3 26 7 -13 15 -20 18
-15z m-67 -3 c-14 -21 -14 -25 -3 -20 8 3 21 1 29 -3 11 -7 9 -9 -6 -10 -62
-1 -95 -12 -95 -32 0 -6 6 -6 15 2 9 7 18 10 22 6 3 -3 1 -6 -6 -6 -8 0 -11
-6 -7 -16 7 -18 -7 -11 -43 20 l-23 21 6 -22 c4 -12 2 -24 -3 -28 -7 -4 -8 1
-4 11 4 11 3 15 -5 10 -6 -3 -14 -1 -18 5 -5 8 -3 9 6 4 10 -6 12 -4 7 8 -3 9
-3 16 1 15 4 -1 17 3 28 10 12 6 24 9 27 5 4 -3 9 2 13 11 3 9 10 13 15 10 5
-3 9 0 9 5 0 6 5 11 11 11 8 0 8 -5 -1 -15 -8 -10 -9 -15 -2 -15 6 0 16 9 22
20 6 11 13 20 17 20 3 0 -3 -12 -12 -27z m475 -18 c0 -5 -5 -3 -10 5 -5 8 -10
20 -10 25 0 6 5 3 10 -5 5 -8 10 -19 10 -25z m-275 5 c16 -17 16 -20 3 -15 -9
4 -19 13 -22 21 -7 19 -2 18 19 -6z m245 -20 c-6 -10 -16 -22 -23 -26 -9 -6
-9 -5 0 8 7 8 10 18 6 21 -3 4 -1 7 6 7 7 0 9 5 5 12 -4 7 -3 8 4 4 9 -5 9
-13 2 -26z m-282 0 c-7 -11 -15 -15 -17 -9 -2 6 3 15 10 20 20 12 21 11 7 -11z
m239 5 c0 -8 -4 -12 -9 -9 -5 3 -6 10 -3 15 9 13 12 11 12 -6z m-277 -10 c0
-8 -2 -15 -4 -15 -2 0 -6 7 -10 15 -3 8 -1 15 4 15 6 0 10 -7 10 -15z m58 -9
c-7 -8 -15 -12 -17 -11 -5 6 10 25 20 25 5 0 4 -6 -3 -14z m85 7 c-7 -2 -19
-2 -25 0 -7 3 -2 5 12 5 14 0 19 -2 13 -5z m80 0 c-7 -2 -19 -2 -25 0 -7 3 -2
5 12 5 14 0 19 -2 13 -5z m-243 -13 c0 -5 -8 -10 -17 -10 -15 0 -16 2 -3 10
19 12 20 12 20 0z m200 0 c0 -5 -4 -10 -10 -10 -5 0 -10 5 -10 10 0 6 5 10 10
10 6 0 10 -4 10 -10z m80 0 c0 -5 -4 -10 -10 -10 -5 0 -10 5 -10 10 0 6 5 10
10 10 6 0 10 -4 10 -10z m-389 -14 c5 3 9 0 9 -6 0 -15 -23 -7 -26 8 -1 7 0 8
3 2 2 -5 9 -8 14 -4z m635 -10 c0 -14 -3 -23 -7 -20 -4 2 -9 -3 -13 -11 -3 -8
-1 -15 5 -15 6 0 7 -5 3 -11 -12 -20 -23 14 -11 35 6 12 12 24 13 29 3 15 4
17 7 17 2 0 3 -11 3 -24z m-791 -6 c-3 -5 3 -13 12 -19 10 -6 13 -11 6 -11 -6
0 -15 5 -18 11 -4 6 -13 -1 -21 -16 -19 -37 -18 -41 6 -20 26 23 26 11 1 -14
-16 -16 -20 -17 -25 -5 -3 8 0 24 7 36 10 16 9 22 -1 25 -10 4 -8 8 5 18 18
14 37 10 28 -5z m240 2 c-3 -3 -11 0 -18 7 -9 10 -8 11 6 5 10 -3 15 -9 12
-12z m45 8 c0 -5 -5 -10 -11 -10 -5 0 -7 5 -4 10 3 6 8 10 11 10 2 0 4 -4 4
-10z m134 1 c3 -5 -2 -15 -12 -22 -15 -13 -16 -12 -4 3 10 13 10 17 0 21 -9 4
-9 6 -1 6 6 1 14 -3 17 -8z m86 -5 c-7 -7 -14 -6 -21 1 -9 9 -7 12 9 10 14 -1
18 -5 12 -11z m-164 -11 c-1 -8 -8 -21 -16 -28 -10 -10 -11 -9 -4 3 5 8 9 18
10 23 3 14 4 17 8 17 2 0 3 -7 2 -15z m814 -42 c0 -7 5 -13 11 -13 6 0 9 -7 5
-15 -4 -10 7 -7 32 10 l37 25 28 -31 c32 -37 33 -47 10 -56 -10 -3 -31 -15
-46 -26 -16 -10 -31 -17 -33 -14 -3 3 -14 -3 -25 -14 -10 -10 -25 -19 -32 -19
-16 0 -18 52 -3 62 8 5 8 8 0 8 -6 0 -12 10 -12 23 0 12 -3 45 -6 72 l-6 50
20 -25 c11 -14 20 -31 20 -37z m-1071 19 c-1 -15 -2 -15 -6 1 -4 15 -7 16 -21
5 -15 -12 -16 -11 -3 4 15 20 32 15 30 -10z m71 12 c0 -2 -7 -4 -15 -4 -8 0
-15 4 -15 10 0 5 7 7 15 4 8 -4 15 -8 15 -10z m45 6 c4 -6 -1 -7 -12 -3 -16 6
-17 5 -3 -13 14 -18 14 -18 -2 -5 -10 7 -15 17 -12 22 7 12 21 11 29 -1z m103
-10 c-7 -10 -14 -17 -17 -15 -4 4 18 35 25 35 2 0 -1 -9 -8 -20z m-350 -19
c-7 -9 -14 -18 -16 -21 -3 -3 -1 6 3 19 5 18 4 22 -5 16 -8 -5 -11 -4 -6 3 4
6 13 9 22 5 12 -4 12 -8 2 -22z m707 19 c-3 -5 -12 -10 -18 -10 -7 0 -6 4 3
10 19 12 23 12 15 0z m-757 -16 c13 8 25 -10 17 -24 -5 -8 -12 -7 -22 1 -12
11 -14 10 -13 -2 4 -26 0 -36 -14 -36 -12 0 -13 5 -4 21 10 19 10 20 -5 7 -10
-7 -17 -12 -18 -10 -8 39 -7 40 9 27 14 -11 15 -10 9 5 -4 11 -3 16 3 12 6 -3
10 0 10 7 0 10 2 10 9 -1 5 -7 13 -11 19 -7z m372 13 c0 -2 -10 -12 -22 -23
l-23 -19 19 23 c18 21 26 27 26 19z m-130 -11 c0 -2 -8 -10 -17 -17 -16 -13
-17 -12 -4 4 13 16 21 21 21 13z m225 -16 c3 -6 -1 -7 -9 -4 -18 7 -21 14 -7
14 6 0 13 -4 16 -10z m-212 -15 c-3 -9 -8 -14 -10 -11 -3 3 -2 9 2 15 9 16 15
13 8 -4z m462 -13 c-3 -3 -11 0 -18 7 -9 10 -8 11 6 5 10 -3 15 -9 12 -12z
m135 14 c0 -2 -7 -7 -16 -10 -8 -3 -12 -2 -9 4 6 10 25 14 25 6z m-943 -13
c-4 -3 1 -12 11 -19 15 -12 15 -15 2 -23 -8 -5 -18 -7 -22 -5 -10 6 -11 -10
-1 -19 3 -4 12 -2 19 4 13 11 62 -7 50 -19 -4 -3 -12 0 -18 6 -17 17 -33 15
-18 -3 9 -10 9 -15 1 -15 -6 0 -11 5 -11 10 0 6 -8 5 -20 -2 -24 -15 -17 -22
22 -23 17 0 32 -6 34 -13 1 -7 0 -8 -3 -2 -2 5 -9 10 -14 10 -6 0 -7 -5 -4
-10 3 -6 -2 -13 -12 -17 -10 -4 -24 -13 -31 -20 -8 -7 -17 -11 -22 -8 -5 3
-10 2 -13 -2 -2 -5 -2 -3 -1 4 5 19 -13 25 -20 7 -5 -13 -10 -13 -33 6 -15 11
-28 28 -29 36 -3 18 1 18 29 0 20 -14 25 -12 61 15 22 16 34 29 27 29 -7 0
-11 8 -9 18 1 9 -1 23 -6 31 -6 9 -5 12 1 8 6 -4 13 0 17 8 3 8 9 15 12 15 4
0 4 -3 1 -7z m133 -4 c0 -5 -4 -8 -9 -4 -5 3 -12 1 -16 -5 -3 -5 -12 -10 -18
-10 -7 0 -3 7 7 15 23 18 36 19 36 4z m155 2 c3 -5 2 -12 -3 -15 -5 -3 -9 1
-9 9 0 17 3 19 12 6z m-78 -16 c0 -8 -4 -12 -9 -9 -4 3 -8 9 -8 15 0 5 4 9 8
9 5 0 9 -7 9 -15z m-72 -34 c-6 -5 -25 10 -25 20 0 5 6 4 14 -3 8 -7 12 -15
11 -17z m-25 -6 c0 -2 -6 -7 -12 -11 -7 -4 -10 -4 -6 1 4 4 0 14 -10 22 -15
13 -15 13 6 3 12 -6 22 -13 22 -15z m800 -15 c0 -5 -5 -10 -11 -10 -5 0 -7 5
-4 10 3 6 8 10 11 10 2 0 4 -4 4 -10z m-1057 -30 c-6 -23 -14 -25 -31 -8 -9 9
-7 14 6 24 22 16 32 9 25 -16z m232 10 c3 -5 1 -10 -4 -10 -6 0 -11 5 -11 10
0 6 2 10 4 10 3 0 8 -4 11 -10z m869 2 c3 -5 -1 -9 -9 -9 -8 0 -12 4 -9 9 3 4
7 8 9 8 2 0 6 -4 9 -8z m-919 -62 c-3 -5 -12 -10 -18 -10 -7 0 -6 4 3 10 19
12 23 12 15 0z m12 -17 c-4 -3 -2 -11 3 -18 7 -8 5 -12 -4 -12 -8 0 -12 7 -11
16 5 22 4 21 12 21 3 0 3 -3 0 -7z m-231 -32 c-4 -9 3 -5 15 9 16 20 18 21 10
4 -6 -12 -8 -23 -6 -26 2 -2 -5 -5 -17 -5 -12 -1 -26 -7 -32 -13 -8 -8 -6 -9
9 -5 15 5 17 4 6 -3 -30 -21 -40 -2 -19 34 20 33 45 38 34 5z m176 4 c-8 -16
-9 -16 -15 -1 -4 10 -3 15 3 11 6 -3 10 -1 10 6 0 7 3 10 6 6 3 -3 2 -13 -4
-22z m-67 5 c3 -5 1 -10 -4 -10 -6 0 -11 5 -11 10 0 6 2 10 4 10 3 0 8 -4 11
-10z m200 -20 c3 -5 1 -10 -4 -10 -6 0 -11 5 -11 10 0 6 2 10 4 10 3 0 8 -4
11 -10z m-162 -33 c3 -8 -1 -14 -8 -14 -7 0 -11 6 -8 14 3 7 6 13 8 13 2 0 5
-6 8 -13z m47 9 c0 -2 -8 -10 -17 -17 -16 -13 -17 -12 -4 4 13 16 21 21 21 13z
m-194 -61 c1 -8 -4 -11 -12 -8 -15 6 -18 16 -7 26 8 9 16 1 19 -18z m137 9
c-7 -3 -9 -13 -6 -22 4 -14 3 -14 -5 -2 -12 16 -7 30 11 29 9 0 9 -2 0 -5z
m77 2 c0 -3 -4 -8 -10 -11 -5 -3 -10 -1 -10 4 0 6 5 11 10 11 6 0 10 -2 10 -4z
m-45 -15 c3 -5 2 -12 -3 -15 -5 -3 -9 1 -9 9 0 17 3 19 12 6z m-98 -47 c-3 -3
-12 -4 -19 -1 -8 3 -5 6 6 6 11 1 17 -2 13 -5z m29 -82 c-17 -16 -18 -16 -5 5
7 12 15 20 18 17 3 -2 -3 -12 -13 -22z m-31 -42 c3 -5 2 -10 -4 -10 -5 0 -13
5 -16 10 -3 6 -2 10 4 10 5 0 13 -4 16 -10z m27 -34 c7 4 8 2 4 -5 -9 -13 -26
-5 -25 12 0 9 2 8 6 -1 2 -6 10 -9 15 -6z m1271 -1 c-3 -9 -8 -14 -10 -11 -3
3 -2 9 2 15 9 16 15 13 8 -4z m-1293 -25 c0 -5 -4 -10 -10 -10 -5 0 -10 5 -10
10 0 6 5 10 10 10 6 0 10 -4 10 -10z m15 -50 c-3 -5 -12 -10 -18 -10 -7 0 -6
4 3 10 19 12 23 12 15 0z m-172 -12 c3 -8 -5 -14 -20 -14 -19 -2 -22 1 -12 12
14 17 25 18 32 2z m231 -28 c-6 -6 -10 -3 -10 10 0 13 4 16 10 10 7 -7 7 -13
0 -20z m-79 -19 c-3 -6 -11 -11 -16 -11 -5 0 -4 6 3 14 14 16 24 13 13 -3z
m1453 -1 c12 -19 11 -20 -8 -8 -11 7 -20 16 -20 20 0 15 15 8 28 -12z m-1588
-10 c6 -11 8 -20 6 -20 -3 0 -10 9 -16 20 -6 11 -8 20 -6 20 3 0 10 -9 16 -20z
m177 -7 c0 -8 -4 -10 -12 -3 -7 5 -16 6 -20 2 -5 -4 -5 -2 -2 4 9 15 34 13 34
-3z m-22 -23 c4 -6 -1 -7 -11 -3 -10 3 -15 2 -12 -3 3 -5 0 -15 -8 -22 -17
-15 -18 -8 -4 19 12 21 25 25 35 9z m58 -5 c-3 -9 -8 -14 -10 -11 -3 3 -2 9 2
15 9 16 15 13 8 -4z m-67 -73 c1 -7 0 -8 -3 -2 -2 5 -9 8 -14 4 -5 -3 -9 0 -9
6 0 15 23 7 26 -8z m78 10 c3 -5 -1 -9 -9 -9 -8 0 -15 4 -15 9 0 4 4 8 9 8 6
0 12 -4 15 -8z m-49 -44 c-3 -11 -7 -23 -11 -27 -4 -3 -4 2 -1 12 6 15 3 17
-13 12 -11 -4 -20 -2 -20 4 0 6 3 10 8 10 20 -3 32 2 26 13 -4 6 -3 8 4 4 6
-3 9 -16 7 -28z m115 26 c0 -8 -19 -13 -24 -6 -3 5 1 9 9 9 8 0 15 -2 15 -3z
m-35 -92 c-3 -3 -11 0 -18 7 -9 10 -8 11 6 5 10 -3 15 -9 12 -12z m60 -32 c3
-5 1 -10 -4 -10 -6 0 -11 5 -11 10 0 6 2 10 4 10 3 0 8 -4 11 -10z m1000 -20
c3 -5 1 -10 -4 -10 -6 0 -11 5 -11 10 0 6 2 10 4 10 3 0 8 -4 11 -10z m-1105
-4 c0 -2 -7 -7 -16 -10 -8 -3 -12 -2 -9 4 6 10 25 14 25 6z m1170 -6 c0 -5 -5
-10 -11 -10 -5 0 -7 5 -4 10 3 6 8 10 11 10 2 0 4 -4 4 -10z m18 -32 c-3 -7
-12 -14 -22 -14 -13 -2 -13 -1 -1 3 8 2 13 9 10 14 -4 5 -1 9 5 9 7 0 10 -6 8
-12z m-1093 -16 c-3 -3 -11 0 -18 7 -9 10 -8 11 6 5 10 -3 15 -9 12 -12z m32
-7 c0 -8 -4 -12 -9 -9 -5 3 -6 10 -3 15 9 13 12 11 12 -6z m960 0 c0 -8 -4
-12 -9 -9 -5 3 -6 10 -3 15 9 13 12 11 12 -6z m53 10 c0 -7 -30 -13 -34 -7 -3
4 4 9 15 9 10 1 19 0 19 -2z m-1055 -25 c-3 -5 -12 -10 -18 -10 -7 0 -6 4 3
10 19 12 23 12 15 0z m1065 -4 c0 -19 -17 -29 -25 -16 -3 5 -11 10 -16 10 -6
0 -7 -5 -3 -12 5 -7 3 -8 -5 -3 -9 5 -10 10 -2 18 7 7 15 6 27 -4 16 -12 17
-12 11 4 -3 9 -2 17 3 17 6 0 10 -6 10 -14z m-1205 -16 c12 -14 13 -20 4 -26
-7 -4 -10 -3 -5 4 4 7 -1 10 -14 7 -12 -2 -24 3 -29 14 -13 24 22 26 44 1z
m1039 2 c2 -4 -5 -9 -17 -9 -17 -2 -19 0 -7 7 18 12 18 12 24 2z m105 -32 c0
-10 -3 -8 -9 5 -12 27 -12 43 0 25 5 -8 9 -22 9 -30z m206 13 c-2 -10 -4 -21
-4 -25 -1 -5 -5 -8 -9 -8 -13 0 -11 34 2 42 15 10 15 10 11 -9z m-1225 -3 c-8
-5 -19 -10 -25 -10 -5 0 -3 5 5 10 8 5 20 10 25 10 6 0 3 -5 -5 -10z m1185 0
c-3 -5 -2 -10 4 -10 10 0 8 -34 -4 -62 -4 -10 -12 -18 -18 -18 -6 0 -7 -3 -4
-7 10 -9 -13 -33 -31 -33 -14 0 -14 2 -1 13 8 6 23 22 32 33 18 21 18 22 0 20
-24 -2 -24 24 1 52 20 23 32 30 21 12z m-1301 -14 c6 2 16 -4 22 -14 10 -15 8
-18 -12 -18 -19 0 -21 3 -11 15 8 10 9 13 0 8 -15 -9 -44 2 -37 15 4 6 10 6
16 0 6 -6 16 -8 22 -6z m187 -21 c5 4 9 1 9 -4 0 -6 -4 -11 -8 -11 -12 0 -32
22 -32 35 0 5 5 2 11 -8 6 -9 14 -15 20 -12z m34 15 c3 -6 -1 -7 -9 -4 -18 7
-21 14 -7 14 6 0 13 -4 16 -10z m69 -6 c3 -8 2 -12 -4 -9 -6 3 -10 10 -10 16
0 14 7 11 14 -7z m703 1 c0 -8 -4 -12 -9 -9 -5 3 -6 10 -3 15 9 13 12 11 12
-6z m63 11 c0 -2 -7 -7 -16 -10 -8 -3 -12 -2 -9 4 6 10 25 14 25 6z m15 -26
c-1 -11 -5 -23 -10 -27 -4 -5 -4 -2 0 6 6 11 4 13 -10 7 -18 -7 -18 -6 0 14
22 25 22 25 20 0z m-1100 0 c-3 -5 -10 -10 -16 -10 -5 0 -9 5 -9 10 0 6 7 10
16 10 8 0 12 -4 9 -10z m172 -11 c-1 -12 4 -24 11 -26 8 -3 10 2 6 14 -5 16
-4 16 11 -2 12 -14 19 -16 22 -7 3 6 12 12 21 12 14 0 13 -2 -3 -14 -11 -7
-27 -13 -35 -13 -8 0 -22 -2 -30 -4 -8 -2 -14 2 -12 9 1 6 -2 12 -8 12 -14 0
-12 -22 4 -42 15 -21 27 -23 24 -6 -2 7 11 13 30 15 17 1 32 -2 32 -7 0 -5 -8
-7 -17 -3 -10 3 -15 3 -11 -2 4 -4 3 -14 -3 -22 -8 -9 -8 -13 -1 -13 6 0 14 5
17 10 5 8 12 7 23 -2 14 -11 15 -10 9 6 -8 20 8 46 27 46 6 0 3 -5 -6 -11 -10
-5 -18 -15 -18 -21 0 -9 3 -9 12 0 15 15 28 16 28 2 0 -5 -5 -9 -11 -7 -6 1
-14 -4 -17 -12 -3 -8 0 -11 7 -7 7 5 9 1 4 -9 -5 -13 -7 -14 -14 -3 -5 7 -9 9
-9 4 0 -5 -6 -3 -14 3 -8 7 -17 8 -20 3 -3 -5 7 -15 22 -21 24 -11 25 -14 9
-22 -10 -6 -15 -14 -12 -20 4 -5 -1 -12 -9 -15 -9 -3 -13 -11 -10 -16 4 -6 1
-9 -7 -6 -8 3 -14 10 -14 17 0 6 -7 16 -15 21 -13 9 -13 11 0 19 8 5 18 7 24
4 5 -3 6 -1 2 6 -4 6 -12 9 -17 6 -5 -3 -6 2 -3 12 3 10 2 14 -3 8 -11 -14
-33 -17 -33 -5 0 6 6 10 14 10 8 0 18 5 22 12 5 8 2 9 -12 3 -10 -4 -29 -8
-41 -8 -18 -1 -20 -4 -12 -19 13 -24 -6 -24 -20 -1 -6 12 -5 20 6 28 13 10 13
16 3 34 -8 15 -8 21 -1 17 6 -4 11 -3 11 1 0 8 32 53 37 53 2 0 2 -10 0 -21z
m116 14 c3 -5 -6 -9 -20 -10 -19 -1 -22 1 -12 8 17 11 26 11 32 2z m77 1 c0
-8 -19 -13 -24 -6 -3 5 1 9 9 9 8 0 15 -2 15 -3z m-46 -22 c3 -5 -1 -9 -9 -9
-8 0 -12 4 -9 9 3 4 7 8 9 8 2 0 6 -4 9 -8z m729 -12 c-6 -22 -18 -26 -29 -8
-4 6 -3 8 3 5 6 -4 13 0 17 8 8 22 15 18 9 -5z m-1002 -53 c-5 -5 -11 -4 -15
2 -4 6 -2 11 5 11 8 0 9 3 0 13 -6 8 -8 17 -4 21 4 4 11 -3 15 -15 5 -13 5
-26 -1 -32z m229 43 c-8 -5 -19 -10 -25 -10 -5 0 -3 5 5 10 8 5 20 10 25 10 6
0 3 -5 -5 -10z m808 -15 c-3 -3 -9 2 -12 12 -6 14 -5 15 5 6 7 -7 10 -15 7
-18z m-705 -25 c-3 -12 -8 -19 -11 -16 -5 6 5 36 12 36 2 0 2 -9 -1 -20z m38
-7 c13 -16 12 -17 -3 -4 -17 13 -22 21 -14 21 2 0 10 -8 17 -17z m173 9 c3 -5
-1 -9 -9 -9 -8 0 -12 4 -9 9 3 4 7 8 9 8 2 0 6 -4 9 -8z m216 4 c0 -2 -7 -7
-16 -10 -8 -3 -12 -2 -9 4 6 10 25 14 25 6z m77 -3 c-4 -3 -2 -11 3 -18 7 -8
5 -12 -4 -12 -8 0 -12 7 -11 16 5 22 4 21 12 21 3 0 3 -3 0 -7z m43 1 c0 -8
-19 -13 -24 -6 -3 5 1 9 9 9 8 0 15 -2 15 -3z m64 -3 c-8 -8 -34 -10 -38 -2
-3 4 6 7 19 7 14 0 22 -2 19 -5z m34 -16 c-3 -3 -9 2 -12 12 -6 14 -5 15 5 6
7 -7 10 -15 7 -18z m40 11 c-7 -8 -15 -12 -17 -11 -5 6 10 25 20 25 5 0 4 -6
-3 -14z m-663 -16 c3 -5 1 -10 -4 -10 -6 0 -11 5 -11 10 0 6 2 10 4 10 3 0 8
-4 11 -10z m38 -20 c-3 -12 -8 -19 -11 -16 -5 6 5 36 12 36 2 0 2 -9 -1 -20z
m568 6 c5 3 9 0 9 -6 0 -15 -23 -7 -26 8 -1 7 0 8 3 2 2 -5 9 -8 14 -4z m243
-1 c-4 -8 -7 -15 -9 -15 -2 0 -5 7 -9 15 -3 9 0 15 9 15 9 0 12 -6 9 -15z
m-1074 -26 c0 8 3 12 6 9 3 -4 0 -18 -8 -31 -12 -23 -15 -24 -32 -11 -11 7
-17 17 -13 20 4 4 14 1 24 -7 15 -12 16 -12 8 1 -5 8 -11 24 -12 35 -2 17 0
16 12 -5 8 -14 14 -19 15 -11z m205 21 c3 -5 1 -10 -4 -10 -6 0 -11 5 -11 10
0 6 2 10 4 10 3 0 8 -4 11 -10z m182 -5 c0 -18 -24 -28 -33 -13 -4 6 -3 8 3 5
6 -4 13 0 17 8 7 19 13 19 13 0z m98 6 c3 -5 2 -12 -3 -15 -5 -3 -9 1 -9 9 0
17 3 19 12 6z m64 -8 c-6 -7 -8 -13 -5 -13 14 0 -24 -44 -39 -46 -8 -1 -13 2
-9 7 3 5 9 7 13 5 10 -7 28 26 26 45 -2 9 3 16 11 16 10 0 11 -4 3 -14z m221
13 c0 -2 -7 -7 -16 -10 -8 -3 -12 -2 -9 4 6 10 25 14 25 6z m20 -16 c0 -5 -7
-10 -15 -10 -9 0 -12 -6 -9 -15 6 -15 35 -22 33 -7 -3 20 2 32 12 26 8 -4 7
-9 -2 -15 -8 -5 -12 -9 -9 -10 3 0 13 -2 23 -4 13 -2 17 1 13 11 -3 8 -1 14 4
14 6 0 10 -8 10 -18 0 -9 9 -23 20 -30 12 -7 17 -18 13 -29 -5 -12 -3 -14 7
-8 8 5 11 4 6 -3 -3 -5 0 -13 6 -15 8 -4 7 -6 -4 -6 -9 -1 -20 -11 -24 -23 -7
-22 -7 -22 -29 5 -14 19 -27 26 -38 21 -9 -3 -14 -11 -10 -17 3 -6 1 -7 -5 -3
-6 3 -16 -2 -22 -11 -11 -17 -11 -17 -6 0 4 12 2 16 -6 11 -7 -5 -9 -2 -5 9 4
11 2 14 -8 10 -8 -3 -13 -9 -10 -13 3 -5 1 -11 -4 -15 -6 -3 -8 -12 -4 -20 3
-8 0 -15 -7 -15 -7 0 -10 8 -7 20 3 11 1 23 -4 26 -5 3 -6 10 -3 16 4 6 0 15
-7 20 -11 8 -10 8 4 4 14 -4 20 0 24 15 5 16 8 18 15 7 7 -9 8 -8 6 7 -3 13
-11 19 -23 18 -11 -1 -14 0 -7 3 6 3 12 13 13 22 0 12 3 10 9 -5 5 -13 14 -23
20 -23 8 0 8 6 0 19 -8 16 -6 22 7 30 23 13 23 13 23 1z m-485 -10 c3 -5 1
-10 -4 -10 -6 0 -11 5 -11 10 0 6 2 10 4 10 3 0 8 -4 11 -10z m125 -6 c-6 -6
-7 -14 -3 -17 3 -4 2 -7 -4 -7 -6 0 -13 8 -15 18 -4 12 1 18 13 18 12 0 15 -4
9 -12z m278 -9 c-3 -3 -9 2 -12 12 -6 14 -5 15 5 6 7 -7 10 -15 7 -18z m289
19 c-3 -4 -2 -14 3 -23 6 -12 3 -20 -10 -29 -14 -8 -19 -8 -23 2 -3 8 0 19 6
25 6 6 7 11 2 11 -6 0 -3 5 5 10 17 11 26 13 17 4z m-712 -25 c11 -16 1 -19
-13 -3 -7 8 -8 14 -3 14 5 0 13 -5 16 -11z m314 0 c-17 -11 -39 -12 -39 -1 0
4 12 8 27 9 19 1 22 -1 12 -8z m113 -29 c4 0 8 -4 8 -8 0 -13 -27 -10 -27 2 0
6 -4 20 -7 31 -5 15 -4 15 5 -2 7 -13 16 -23 21 -23z m-172 -5 c-7 -8 -16 -15
-21 -15 -5 0 -1 8 9 18 20 22 31 19 12 -3z m127 -20 c0 -8 -4 -15 -9 -15 -10
0 -11 14 -1 23 9 10 10 9 10 -8z m-397 -25 c0 -5 -5 -10 -11 -10 -5 0 -7 5 -4
10 3 6 8 10 11 10 2 0 4 -4 4 -10z m480 -46 c0 -8 -5 -12 -10 -9 -6 4 -8 11
-5 16 9 14 15 11 15 -7z m-160 -29 c0 -12 -19 -12 -23 0 -4 9 -1 12 9 8 7 -3
14 -7 14 -8z"/>
<path d="M2406 2648 c3 -5 10 -6 15 -3 13 9 11 12 -6 12 -8 0 -12 -4 -9 -9z"/>
<path d="M2438 2608 c-8 -19 17 -33 28 -16 4 6 3 8 -4 4 -6 -3 -12 2 -14 11
-3 16 -4 17 -10 1z"/>
<path d="M2410 2570 c0 -5 5 -10 10 -10 6 0 10 5 10 10 0 6 -4 10 -10 10 -5 0
-10 -4 -10 -10z"/>
<path d="M2190 2530 c5 -9 7 -20 4 -22 -3 -3 2 -8 10 -11 9 -4 18 -1 22 5 4 6
3 8 -3 5 -11 -7 -28 22 -18 31 3 3 5 0 5 -6 0 -7 5 -12 12 -12 17 0 -7 23 -27
26 -11 2 -12 -2 -5 -16z"/>
<path d="M1970 2531 c0 -4 -8 -8 -17 -8 -36 0 -44 -3 -37 -14 5 -8 9 -8 14 1
6 9 10 6 15 -9 9 -29 27 -22 31 12 1 15 1 27 -2 27 -2 0 -4 -4 -4 -9z"/>
<path d="M1765 2460 c-4 -6 -11 -8 -16 -5 -5 4 -9 1 -9 -5 0 -6 -6 -8 -12 -4
-10 5 -10 4 -1 -6 10 -11 15 -11 29 1 9 8 27 13 38 11 17 -2 18 -1 6 7 -19 13
-27 14 -35 1z"/>
<path d="M2856 2283 c-6 -14 -5 -15 5 -6 7 7 10 15 7 18 -3 3 -9 -2 -12 -12z"/>
<path d="M2800 2286 c0 -2 7 -7 16 -10 8 -3 12 -2 9 4 -6 10 -25 14 -25 6z"/>
<path d="M1465 2290 c4 -6 11 -8 16 -5 14 9 11 15 -7 15 -8 0 -12 -5 -9 -10z"/>
<path d="M1417 2198 c-21 -15 -31 -18 -40 -9 -6 6 -15 11 -20 11 -5 0 1 -9 14
-19 21 -17 25 -17 32 -4 8 13 11 12 28 -3 11 -10 19 -12 19 -6 0 7 12 15 26
18 16 4 22 10 16 16 -6 6 -17 6 -30 -1 -25 -13 -43 -14 -22 -1 8 5 12 11 10
14 -3 2 -18 -5 -33 -16z"/>
<path d="M1350 1316 c0 -2 7 -7 16 -10 8 -3 12 -2 9 4 -6 10 -25 14 -25 6z"/>
<path d="M2673 1268 c-13 -23 -13 -40 1 -29 7 6 17 7 22 3 4 -4 3 0 -4 9 -6 9
-9 19 -5 22 3 4 4 7 0 7 -3 0 -9 -6 -14 -12z"/>
<path d="M1504 1172 c0 -10 6 -19 13 -19 8 0 9 6 2 19 -5 10 -11 18 -12 18 -2
0 -3 -8 -3 -18z"/>
<path d="M1550 1176 c0 -2 7 -7 16 -10 8 -3 12 -2 9 4 -6 10 -25 14 -25 6z"/>
<path d="M1594 1116 c19 -15 12 -22 -16 -17 -5 0 -8 -3 -8 -8 0 -11 31 -24 38
-16 3 3 -1 5 -8 5 -9 0 -7 5 5 14 18 13 18 14 -6 25 -23 11 -23 11 -5 -3z"/>
<path d="M2340 1069 c0 -5 -7 -6 -15 -3 -9 4 -19 -3 -26 -20 -7 -14 -16 -23
-20 -20 -4 2 -13 -4 -19 -15 -7 -14 -7 -22 0 -26 6 -4 10 -3 9 2 -5 30 10 38
40 19 7 -5 16 -5 20 0 12 17 43 15 55 -2 8 -10 18 -14 25 -10 8 6 9 12 2 20
-7 9 -7 16 0 23 8 8 6 14 -9 22 -10 6 -22 7 -26 4 -3 -3 -6 -2 -6 4 0 5 -7 10
-15 10 -8 0 -15 -4 -15 -8z m1 -29 c6 0 8 4 5 8 -2 4 6 8 20 8 13 0 24 -4 24
-9 0 -4 6 -5 13 -1 9 6 9 5 0 -7 -10 -12 -10 -18 -1 -27 9 -9 9 -12 0 -12 -11
0 -16 13 -13 32 0 4 -8 6 -19 5 -11 -1 -20 -6 -20 -11 0 -5 -3 -6 -7 -3 -3 4
-13 1 -22 -6 -14 -11 -15 -10 -1 7 14 18 13 19 -4 13 -16 -7 -17 -5 -5 9 8 10
15 12 17 5 2 -6 8 -11 13 -11z"/>
<path d="M2233 2735 c0 -8 4 -12 9 -9 5 3 6 10 3 15 -9 13 -12 11 -12 -6z"/>
<path d="M2195 2730 c3 -5 8 -10 11 -10 2 0 4 5 4 10 0 6 -5 10 -11 10 -5 0
-7 -4 -4 -10z"/>
<path d="M2180 2716 c0 -2 8 -10 18 -17 15 -13 16 -12 3 4 -13 16 -21 21 -21
13z"/>
<path d="M2155 2701 c-3 -6 5 -15 17 -21 21 -10 21 -10 6 3 -10 8 -15 17 -11
20 3 4 4 7 0 7 -3 0 -8 -4 -12 -9z"/>
<path d="M1393 2545 c0 -8 4 -12 9 -9 5 3 6 10 3 15 -9 13 -12 11 -12 -6z"/>
<path d="M1347 2529 c7 -7 15 -10 18 -7 3 3 -2 9 -12 12 -14 6 -15 5 -6 -5z"/>
<path d="M1396 2483 c-6 -14 -5 -15 5 -6 7 7 10 15 7 18 -3 3 -9 -2 -12 -12z"/>
<path d="M1286 2468 c3 -5 10 -6 15 -3 13 9 11 12 -6 12 -8 0 -12 -4 -9 -9z"/>
<path d="M1430 2430 c0 -5 5 -10 10 -10 6 0 10 5 10 10 0 6 -4 10 -10 10 -5 0
-10 -4 -10 -10z"/>
<path d="M1215 2310 c-3 -5 -1 -10 4 -10 6 0 11 5 11 10 0 6 -2 10 -4 10 -3 0
-8 -4 -11 -10z"/>
<path d="M1275 2270 c6 -10 4 -12 -9 -7 -10 4 -15 3 -11 -3 8 -13 35 -13 35
-1 0 6 -5 13 -12 17 -7 5 -8 3 -3 -6z"/>
<path d="M1066 2248 c3 -5 10 -6 15 -3 13 9 11 12 -6 12 -8 0 -12 -4 -9 -9z"/>
<path d="M1135 2230 c3 -5 8 -10 11 -10 2 0 4 5 4 10 0 6 -5 10 -11 10 -5 0
-7 -4 -4 -10z"/>
<path d="M1155 2190 c-3 -5 -1 -10 4 -10 6 0 11 5 11 10 0 6 -2 10 -4 10 -3 0
-8 -4 -11 -10z"/>
<path d="M1217 2175 c3 -8 9 -12 14 -9 12 7 11 11 -5 17 -10 4 -13 1 -9 -8z"/>
<path d="M1070 2176 c0 -2 7 -7 16 -10 8 -3 12 -2 9 4 -6 10 -25 14 -25 6z"/>
<path d="M1179 2163 c-13 -16 -12 -17 4 -4 9 7 17 15 17 17 0 8 -8 3 -21 -13z"/>
<path d="M2906 2168 c3 -4 9 -8 15 -8 5 0 9 4 9 8 0 5 -7 9 -15 9 -8 0 -12 -4
-9 -9z"/>
<path d="M1196 2145 c-3 -9 -10 -13 -16 -10 -5 3 -10 1 -10 -4 0 -6 4 -11 9
-11 12 0 35 29 29 36 -3 3 -8 -2 -12 -11z"/>
<path d="M1240 2151 c0 -7 -4 -9 -10 -6 -6 4 -7 -1 -3 -11 5 -13 3 -15 -7 -9
-8 5 -11 4 -6 -3 3 -5 0 -13 -6 -15 -10 -4 -10 -6 -1 -6 15 -1 48 47 39 56 -3
3 -6 1 -6 -6z"/>
<path d="M1340 2130 c-6 -11 -8 -20 -5 -20 3 0 1 -9 -5 -20 -6 -11 -15 -18
-20 -15 -7 4 -7 -24 0 -32 2 -2 3 -12 4 -23 0 -11 4 -20 9 -20 4 0 12 0 19 0
6 0 8 3 4 7 -3 4 8 22 26 41 32 33 33 34 13 48 -11 8 -19 21 -17 29 4 23 -16
27 -28 5z m29 -64 c-11 -5 -19 -15 -19 -21 0 -7 -8 -16 -17 -19 -10 -4 -14 -4
-10 0 4 4 1 14 -6 23 -10 14 -10 14 4 3 15 -11 17 -10 18 10 1 59 3 61 26 36
22 -22 22 -23 4 -32z"/>
<path d="M1347 2081 c-3 -13 -1 -18 9 -14 7 2 10 11 7 19 -7 19 -10 18 -16 -5z"/>
<path d="M1115 2101 c-3 -5 -2 -12 3 -15 5 -3 9 1 9 9 0 17 -3 19 -12 6z"/>
<path d="M3036 2097 c3 -10 9 -15 12 -12 3 3 0 11 -7 18 -10 9 -11 8 -5 -6z"/>
<path d="M1190 2080 c0 -6 7 -10 15 -10 8 0 15 2 15 4 0 2 -7 6 -15 10 -8 3
-15 1 -15 -4z"/>
<path d="M1186 2048 c3 -4 12 -8 20 -8 8 0 14 4 14 8 0 4 -9 8 -19 8 -11 0
-17 -4 -15 -8z"/>
<path d="M1056 1988 c3 -4 11 -5 19 -1 21 7 19 12 -4 10 -11 0 -18 -5 -15 -9z"/>
<path d="M1146 1971 c-4 -5 3 -7 14 -4 23 6 26 13 6 13 -8 0 -17 -4 -20 -9z"/>
<path d="M1180 1960 c-8 -5 -12 -11 -10 -14 3 -2 14 2 24 10 22 15 10 19 -14
4z"/>
<path d="M1055 1950 c3 -5 8 -10 11 -10 2 0 4 5 4 10 0 6 -5 10 -11 10 -5 0
-7 -4 -4 -10z"/>
<path d="M1215 1947 c-12 -7 -20 -19 -20 -27 0 -8 -13 -25 -29 -37 -34 -26
-27 -31 9 -7 31 20 33 2 3 -20 -20 -13 -20 -15 -3 -9 18 6 19 5 5 -12 -8 -10
-10 -16 -3 -12 6 4 13 3 15 -3 6 -18 70 -27 113 -17 11 3 23 6 28 6 4 1 7 6 7
12 0 8 -4 8 -15 -1 -12 -10 -17 -7 -26 14 -7 14 -16 26 -21 26 -13 0 -9 -18 5
-23 6 -3 2 -4 -10 -4 -18 1 -20 4 -11 20 7 13 7 17 0 13 -6 -4 -9 4 -8 19 2
13 0 22 -5 20 -4 -3 -10 -1 -13 4 -3 5 1 11 9 15 8 3 18 -2 23 -10 5 -9 12
-15 15 -15 4 1 7 -1 7 -4 0 -3 0 -8 0 -11 0 -4 -7 -1 -15 6 -9 8 -15 9 -15 2
0 -32 40 -23 56 13 9 19 9 27 -2 36 -8 7 -17 9 -21 6 -3 -4 -13 -1 -21 6 -10
8 -13 8 -9 1 4 -7 0 -15 -9 -18 -8 -3 -12 -2 -9 3 9 16 -9 20 -30 8z m16 -15
c-7 -13 -7 -22 0 -29 12 -12 22 -63 13 -63 -4 0 -12 7 -18 15 -9 13 -11 10
-12 -12 -1 -16 1 -22 3 -16 4 10 11 9 33 -2 15 -8 30 -12 34 -10 3 3 4 2 1 -2
-8 -10 -35 -12 -35 -3 0 5 -9 7 -19 5 -11 -2 -25 3 -32 11 -8 10 -8 14 0 14 6
0 11 5 11 11 0 5 -6 7 -12 3 -10 -6 -10 -5 -1 7 7 9 11 25 8 37 -2 12 1 22 6
22 6 0 8 4 5 9 -5 8 3 15 22 20 1 1 -2 -7 -7 -17z m84 -2 c3 -5 0 -12 -6 -16
-8 -5 -9 -3 -4 6 6 10 4 12 -8 7 -9 -3 -18 -3 -21 1 -3 4 4 8 14 9 11 1 22 -2
25 -7z"/>
<path d="M1210 1896 c0 -2 8 -10 18 -17 15 -13 16 -12 3 4 -13 16 -21 21 -21
13z"/>
<path d="M2987 1949 c7 -7 15 -10 18 -7 3 3 -2 9 -12 12 -14 6 -15 5 -6 -5z"/>
<path d="M1150 1941 c0 -7 -4 -9 -10 -6 -6 4 -7 -1 -3 -11 6 -15 7 -15 15 1 6
9 7 19 4 22 -3 4 -6 1 -6 -6z"/>
<path d="M1099 1923 c-13 -16 -12 -17 4 -4 16 13 21 21 13 21 -2 0 -10 -8 -17
-17z"/>
<path d="M2845 1920 c-10 -11 -21 -18 -24 -15 -28 16 -49 -56 -23 -77 8 -7 24
-26 35 -43 10 -16 17 -22 14 -13 -4 12 -2 15 8 11 8 -3 12 -10 9 -15 -4 -6 2
-5 14 1 26 14 35 14 27 1 -3 -6 1 -7 9 -4 13 5 12 9 -7 26 -16 15 -18 18 -5
14 10 -3 17 -1 15 6 -1 6 3 12 10 15 7 3 10 -4 7 -19 -4 -21 -4 -21 5 -3 13
29 -3 39 -32 20 -21 -13 -30 -14 -44 -5 -12 8 -13 10 -3 7 9 -3 24 1 35 9 10
8 15 14 9 15 -5 1 2 4 16 8 18 5 24 13 22 29 -2 16 1 20 12 16 9 -3 16 -2 16
4 0 6 -8 9 -17 7 -11 -1 -18 -11 -17 -24 0 -14 -5 -21 -18 -21 -10 0 -21 -6
-24 -13 -5 -14 -44 -21 -44 -8 0 5 14 14 30 21 24 10 28 15 19 26 -9 11 -8 18
1 29 9 10 9 15 1 15 -6 0 -11 -5 -11 -11 0 -9 -4 -9 -13 0 -11 8 -18 6 -32 -9z
m45 -31 c0 -3 -11 -11 -25 -17 -18 -9 -24 -17 -21 -34 3 -13 5 -27 5 -31 1 -5
5 -6 9 -3 12 7 38 -12 29 -21 -5 -4 -11 -3 -15 2 -4 6 -14 11 -22 13 -8 2 -26
15 -40 29 -14 14 -19 23 -12 19 15 -9 16 10 2 19 -8 5 -7 11 1 21 6 7 15 12
19 9 4 -2 15 4 25 15 17 19 19 19 31 2 7 -9 14 -20 14 -23z"/>
<path d="M2840 1895 c-7 -8 -16 -13 -20 -10 -5 3 -11 1 -14 -4 -4 -5 -1 -13 5
-16 5 -4 8 -13 5 -20 -3 -8 1 -19 9 -25 12 -10 13 -8 10 12 -4 16 3 29 22 46
19 15 22 20 9 16 -13 -5 -17 -4 -12 4 10 17 1 15 -14 -3z m10 -9 c0 -2 -6 -9
-14 -15 -11 -9 -16 -9 -22 0 -4 7 -3 9 4 5 6 -3 13 -2 17 4 6 10 15 14 15 6z"/>
<path d="M2916 1925 c-9 -26 -7 -32 5 -12 6 10 9 21 6 23 -2 3 -7 -2 -11 -11z"/>
<path d="M1153 1903 c-12 -13 -19 -23 -14 -23 10 0 46 39 40 43 -2 2 -14 -7
-26 -20z"/>
<path d="M1112 1904 c-7 -8 -8 -14 -3 -14 10 0 25 19 20 25 -2 1 -10 -3 -17
-11z"/>
<path d="M1010 1890 c0 -5 5 -10 11 -10 5 0 7 5 4 10 -3 6 -8 10 -11 10 -2 0
-4 -4 -4 -10z"/>
<path d="M1116 1852 c-3 -4 4 -9 15 -9 23 -2 25 3 4 10 -8 4 -16 3 -19 -1z"/>
<path d="M2950 1852 c0 -4 11 -8 25 -8 28 0 24 8 -5 13 -11 2 -20 -1 -20 -5z"/>
<path d="M3054 1826 c1 -8 5 -18 8 -22 4 -3 5 1 4 10 -1 8 -5 18 -8 22 -4 3
-5 -1 -4 -10z"/>
<path d="M1120 1821 c0 -6 4 -13 10 -16 6 -3 7 1 4 9 -7 18 -14 21 -14 7z"/>
<path d="M1151 1814 c0 -11 3 -14 6 -6 3 7 2 16 -1 19 -3 4 -6 -2 -5 -13z"/>
<path d="M2976 1817 c3 -10 9 -15 12 -12 3 3 0 11 -7 18 -10 9 -11 8 -5 -6z"/>
<path d="M2972 1781 c-11 -7 -11 -9 0 -14 9 -3 15 1 15 9 0 8 -1 14 -1 14 -1
0 -7 -4 -14 -9z"/>
<path d="M1154 1752 c3 -6 -2 -15 -11 -21 -10 -6 -13 -11 -7 -11 20 0 37 27
23 36 -7 4 -9 3 -5 -4z"/>
<path d="M1240 1749 c-12 -8 -11 -9 5 -7 12 2 19 -2 17 -10 -1 -8 2 -11 8 -7
8 5 7 11 -1 21 -14 17 -10 16 -29 3z"/>
<path d="M1107 1699 c6 -23 9 -24 16 -5 3 8 0 17 -7 19 -10 4 -12 -1 -9 -14z"/>
<path d="M1274 1691 c4 -5 1 -11 -6 -13 -6 -2 -12 -12 -14 -21 -1 -9 2 -15 6
-12 5 3 11 1 15 -5 7 -11 25 -4 25 10 0 5 -6 7 -14 4 -8 -3 -16 -1 -20 4 -3 5
5 8 17 7 22 -2 38 -34 18 -36 -6 -1 -16 -2 -23 -3 -15 -1 -19 -36 -4 -36 7 0
22 13 34 29 18 24 19 31 8 46 -7 10 -18 15 -24 11 -8 -5 -10 -2 -6 8 3 9 1 16
-6 16 -6 0 -9 -4 -6 -9z"/>
<path d="M2931 1683 c-1 -17 16 -25 25 -12 4 7 3 9 -4 5 -5 -3 -13 0 -15 6 -4
9 -6 10 -6 1z"/>
<path d="M1030 1669 c0 -5 5 -7 10 -4 6 3 10 8 10 11 0 2 -4 4 -10 4 -5 0 -10
-5 -10 -11z"/>
<path d="M1131 1654 c0 -11 3 -14 6 -6 3 7 2 16 -1 19 -3 4 -6 -2 -5 -13z"/>
<path d="M2966 1648 c3 -5 9 -7 12 -4 3 3 12 0 21 -6 13 -10 14 -10 4 2 -15
16 -46 23 -37 8z"/>
<path d="M2935 1640 c-7 -11 22 -26 32 -16 4 3 -1 6 -11 6 -9 0 -14 5 -11 10
3 6 4 10 1 10 -3 0 -8 -5 -11 -10z"/>
<path d="M1122 1614 c-7 -8 -8 -14 -3 -14 10 0 25 19 20 25 -2 1 -10 -3 -17
-11z"/>
<path d="M1056 1591 c8 -8 43 -8 38 0 -2 4 -13 7 -24 6 -10 -1 -17 -3 -14 -6z"/>
<path d="M1135 1591 c-6 -11 13 -26 22 -17 4 3 1 6 -6 6 -7 0 -9 5 -6 10 3 6
4 10 1 10 -3 0 -7 -4 -11 -9z"/>
<path d="M1239 1536 c-1 -1 -3 -13 -4 -28 -3 -18 1 -28 12 -30 9 -2 17 -13 18
-26 1 -12 -3 -21 -9 -19 -6 2 -10 12 -10 21 1 9 -2 16 -7 16 -17 0 -9 -32 14
-51 29 -25 10 -24 -28 1 -16 11 -34 20 -40 20 -5 0 8 -11 30 -25 25 -15 48
-22 60 -18 18 5 19 4 5 -13 -8 -10 -19 -22 -25 -26 -5 -4 -6 -8 -1 -8 5 0 20
12 33 26 13 14 30 23 38 20 8 -3 19 3 24 12 5 9 13 16 18 14 4 -2 9 1 11 7 2
6 -3 8 -12 5 -9 -3 -16 -1 -16 5 0 6 -4 11 -9 11 -5 0 -8 -12 -6 -27 2 -16 2
-22 -1 -15 -3 6 -11 9 -17 5 -8 -5 -8 -2 0 9 7 8 10 18 6 22 -12 11 -12 37 -1
30 7 -4 8 -2 4 5 -4 6 -11 9 -16 6 -4 -3 -10 1 -13 8 -5 15 20 16 41 3 10 -6
10 -11 1 -22 -14 -17 2 -19 19 -2 16 16 15 28 -3 28 -14 0 -20 12 -16 33 1 5
-4 5 -11 1 -18 -11 -38 -14 -38 -5 0 5 -42 11 -51 7z m50 -22 c3 -4 -2 -4 -13
0 -15 5 -15 2 5 -18 23 -24 36 -96 16 -96 -5 0 -6 7 -3 15 3 9 -1 18 -9 22 -9
3 -15 10 -14 17 3 16 -12 47 -20 42 -4 -3 -7 4 -7 14 0 12 6 17 19 14 11 -2
22 -6 26 -10z m1 -88 c0 -3 -4 -8 -10 -11 -5 -3 -10 -1 -10 4 0 6 5 11 10 11
6 0 10 -2 10 -4z"/>
<path d="M1279 1477 c6 -8 7 -18 3 -22 -4 -5 -1 -5 6 -1 10 6 10 11 1 22 -6 8
-14 14 -16 14 -3 0 0 -6 6 -13z"/>
<path d="M1139 1483 c-13 -16 -12 -17 4 -4 9 7 17 15 17 17 0 8 -8 3 -21 -13z"/>
<path d="M1190 1470 c-8 -5 -10 -10 -5 -10 6 0 17 5 25 10 8 5 11 10 5 10 -5
0 -17 -5 -25 -10z"/>
<path d="M1150 1425 c5 -7 7 -15 3 -18 -3 -4 -1 -7 5 -7 6 0 10 8 9 18 0 10
-7 19 -14 19 -9 0 -10 -4 -3 -12z"/>
<path d="M2821 1421 c-8 -5 -28 -8 -43 -6 -16 2 -26 0 -23 -5 3 -5 1 -11 -5
-15 -5 -3 -10 1 -10 9 0 9 -6 13 -14 10 -11 -4 -7 -13 16 -34 24 -23 34 -27
49 -20 12 7 20 7 24 0 3 -5 -2 -10 -11 -10 -10 0 -15 -3 -11 -6 3 -4 14 -4 23
0 13 5 15 9 6 18 -20 20 -14 32 6 15 10 -10 22 -17 26 -17 4 0 -6 11 -21 25
l-28 24 29 -2 c17 -1 30 3 32 11 1 7 0 8 -3 2 -2 -5 -12 -10 -21 -10 -15 0
-15 2 -2 10 8 5 11 10 5 10 -5 0 -16 -4 -24 -9z m-23 -32 c-7 -5 -8 -9 -3 -9
6 0 3 -4 -5 -10 -9 -5 -19 -5 -27 2 -19 15 2 37 28 31 16 -5 18 -8 7 -14z"/>
<path d="M2765 1391 c-3 -5 -2 -12 3 -15 5 -3 9 1 9 9 0 17 -3 19 -12 6z"/>
<path d="M2897 1406 c-4 -10 -1 -13 8 -9 8 3 12 9 9 14 -7 12 -11 11 -17 -5z"/>
<path d="M1187 1393 c-3 -5 5 -8 18 -8 13 0 21 3 18 8 -2 4 -10 7 -18 7 -8 0
-16 -3 -18 -7z"/>
<path d="M2920 1390 c-9 -6 -10 -10 -3 -10 6 0 15 5 18 10 8 12 4 12 -15 0z"/>
<path d="M2960 1390 c-12 -7 -10 -9 7 -7 12 0 19 5 17 9 -6 10 -6 10 -24 -2z"/>
<path d="M1235 1369 c-11 -16 -1 -19 13 -3 7 8 8 14 3 14 -5 0 -13 -5 -16 -11z"/>
<path d="M2882 1366 c7 -8 15 -12 17 -11 5 6 -10 25 -20 25 -5 0 -4 -6 3 -14z"/>
<path d="M1414 1355 c-4 -8 -11 -12 -17 -8 -6 4 -7 1 -3 -6 6 -9 13 -8 27 5
22 20 23 24 9 24 -6 0 -13 -7 -16 -15z"/>
<path d="M1440 1325 c-8 -9 -8 -15 -2 -15 12 0 26 19 19 26 -2 2 -10 -2 -17
-11z"/>
<path d="M2865 1329 c-3 -4 2 -6 10 -5 21 3 28 13 10 13 -9 0 -18 -4 -20 -8z"/>
<path d="M1262 1290 c0 -14 2 -19 5 -12 2 6 2 18 0 25 -3 6 -5 1 -5 -13z"/>
<path d="M1425 1290 c4 -6 11 -8 16 -5 14 9 11 15 -7 15 -8 0 -12 -5 -9 -10z"/>
<path d="M1456 1248 c3 -5 10 -6 15 -3 13 9 11 12 -6 12 -8 0 -12 -4 -9 -9z"/>
<path d="M2810 1252 c0 -5 7 -9 15 -9 8 0 12 4 9 9 -3 4 -9 8 -15 8 -5 0 -9
-4 -9 -8z"/>
<path d="M1180 1230 c8 -5 20 -10 25 -10 6 0 3 5 -5 10 -8 5 -19 10 -25 10 -5
0 -3 -5 5 -10z"/>
<path d="M1230 1226 c7 -7 13 -7 20 0 6 6 3 10 -10 10 -13 0 -16 -4 -10 -10z"/>
<path d="M1273 1218 c-2 -18 0 -20 7 -8 12 18 13 30 2 30 -4 0 -9 -10 -9 -22z"/>
<path d="M1320 1219 c0 -5 -4 -8 -9 -5 -5 3 -12 -1 -15 -9 -4 -13 -2 -14 14
-5 18 10 28 30 15 30 -3 0 -5 -5 -5 -11z"/>
<path d="M2500 1215 c0 -8 -9 -20 -20 -28 -20 -14 -20 -14 2 -33 12 -10 18
-14 14 -7 -5 9 4 11 36 8 30 -3 38 -2 28 5 -9 6 -11 10 -3 10 7 0 10 7 6 16
-5 14 -8 13 -18 -6 -11 -21 -12 -21 -19 -4 -6 14 -9 15 -15 5 -6 -9 -11 -10
-15 -2 -6 10 6 15 27 12 14 -2 7 27 -8 33 -9 3 -15 0 -15 -9z"/>
<path d="M2596 1221 c-4 -5 -2 -12 3 -15 5 -4 12 -2 15 3 4 5 2 12 -3 15 -5 4
-12 2 -15 -3z"/>
<path d="M2791 1221 c-8 -5 -9 -11 -3 -15 5 -3 12 1 16 9 6 17 6 18 -13 6z"/>
<path d="M2815 1211 c-3 -5 -2 -12 3 -15 5 -3 9 1 9 9 0 17 -3 19 -12 6z"/>
<path d="M1337 1204 c-4 -4 -4 -11 -1 -15 7 -12 34 -11 34 1 0 5 -7 6 -17 3
-11 -4 -14 -3 -9 5 8 13 3 16 -7 6z"/>
<path d="M1235 1190 c3 -5 8 -10 11 -10 2 0 4 5 4 10 0 6 -5 10 -11 10 -5 0
-7 -4 -4 -10z"/>
<path d="M1293 1163 c0 -10 4 -10 16 -1 9 7 18 13 20 15 2 1 -5 1 -16 0 -11 0
-20 -7 -20 -14z"/>
<path d="M2850 1170 c0 -5 5 -10 11 -10 5 0 7 5 4 10 -3 6 -8 10 -11 10 -2 0
-4 -4 -4 -10z"/>
<path d="M2739 1158 c-10 -33 6 -46 28 -24 4 4 1 6 -7 4 -8 -1 -14 3 -12 10 2
10 -6 19 -9 10z"/>
<path d="M2813 1105 c0 -8 4 -12 9 -9 5 3 6 10 3 15 -9 13 -12 11 -12 -6z"/>
<path d="M1455 1100 c3 -5 8 -10 11 -10 2 0 4 5 4 10 0 6 -5 10 -11 10 -5 0
-7 -4 -4 -10z"/>
<path d="M1705 1100 c-4 -6 -11 -7 -17 -4 -6 4 -8 2 -4 -4 7 -12 46 -12 46 0
0 12 -18 19 -25 8z"/>
<path d="M1740 1085 c-7 -8 -16 -12 -21 -9 -11 7 -11 -7 0 -25 7 -11 10 -9 16
8 4 12 15 21 26 21 11 0 17 5 14 10 -9 14 -21 12 -35 -5z"/>
<path d="M2612 1083 c2 -10 13 -17 30 -17 14 -1 24 2 21 7 -3 5 -14 6 -25 4
-14 -4 -18 -2 -14 9 3 8 1 14 -5 14 -6 0 -9 -7 -7 -17z"/>
<path d="M1433 1076 c0 -15 21 -16 34 -1 4 4 2 5 -4 1 -7 -4 -13 -2 -13 3 0 6
-4 11 -8 11 -5 0 -9 -6 -9 -14z"/>
<path d="M1758 1058 c8 -8 8 -15 1 -24 -7 -9 -6 -12 3 -10 24 4 53 24 45 32
-5 5 -12 3 -16 -5 -7 -10 -10 -9 -14 3 -4 9 -12 16 -19 16 -9 0 -9 -3 0 -12z"/>
<path d="M2148 1058 c17 -21 -3 -35 -24 -17 -12 10 -19 8 -37 -11 -12 -12 -16
-20 -9 -16 6 4 12 2 12 -4 0 -6 4 -9 10 -5 5 3 7 13 4 23 -5 13 -4 14 4 4 5
-8 13 -13 18 -13 5 1 9 -5 9 -11 0 -7 -7 -13 -15 -13 -8 0 -21 -7 -28 -15 -10
-13 -11 -13 -6 3 4 10 1 17 -7 17 -7 0 -9 -3 -6 -7 4 -3 -3 -17 -15 -31 l-23
-24 38 21 c20 11 37 18 37 15 0 -4 6 -2 13 3 22 17 52 10 52 -12 0 -11 4 -26
9 -34 6 -10 4 -12 -12 -7 -21 7 -42 -11 -25 -23 5 -3 8 -12 7 -18 -1 -7 -2
-18 -3 -24 0 -5 -6 -7 -13 -3 -7 5 -8 3 -3 -6 6 -10 11 -10 20 3 14 19 30 23
19 5 -5 -7 -3 -8 6 -3 10 6 10 11 -3 20 -15 11 -15 14 3 30 11 10 17 22 13 28
-4 6 0 8 10 4 12 -4 14 -1 11 16 -3 12 -6 28 -6 35 -2 16 -18 16 -18 0 0 -28
-22 12 -23 43 -1 19 -8 34 -17 37 -13 4 -13 3 -2 -10z m3 -61 c-10 -9 -11 -8
-5 6 3 10 9 15 12 12 3 -3 0 -11 -7 -18z m52 -31 c3 -8 0 -17 -7 -19 -10 -4
-12 1 -9 14 6 23 9 24 16 5z m-33 -56 c0 -5 -2 -10 -4 -10 -3 0 -8 5 -11 10
-3 6 -1 10 4 10 6 0 11 -4 11 -10z"/>
<path d="M1390 1051 c0 -6 4 -13 10 -16 6 -3 7 1 4 9 -7 18 -14 21 -14 7z"/>
<path d="M1466 1052 c-2 -4 4 -8 14 -8 10 0 16 4 14 8 -3 4 -9 8 -14 8 -5 0
-11 -4 -14 -8z"/>
<path d="M2470 1045 c-11 -13 -10 -14 4 -9 9 3 16 10 16 15 0 13 -6 11 -20 -6z"/>
<path d="M1869 1039 c-1 -8 -2 -21 -3 -29 0 -8 -6 -14 -13 -13 -6 1 -10 -5 -8
-15 1 -9 -3 -21 -9 -25 -7 -6 -4 -7 7 -3 11 4 20 0 24 -11 8 -19 56 -64 62
-57 3 2 -4 11 -15 20 -16 13 -17 15 -1 10 17 -5 22 4 17 33 -1 12 1 12 13 3 7
-6 17 -9 20 -5 4 3 7 -1 7 -10 0 -20 13 -22 28 -4 8 10 9 38 3 66 -1 2 -7 -2
-15 -8 -11 -9 -15 -8 -20 5 -5 13 -9 14 -20 5 -17 -15 -29 0 -19 25 5 14 3 16
-12 11 -9 -4 -24 -2 -31 4 -11 9 -14 8 -15 -2z m39 -21 c7 9 11 11 7 4 -9 -17
14 -44 32 -38 8 3 16 -1 20 -9 5 -14 7 -14 17 1 10 13 12 12 11 -9 0 -14 -4
-29 -8 -33 -4 -5 -5 -1 -2 8 5 13 2 16 -14 13 -11 -2 -23 1 -27 6 -4 6 -11 6
-19 -1 -11 -10 -13 -8 -10 9 2 12 0 19 -5 16 -12 -7 -6 -35 11 -46 10 -8 7 -8
-10 -4 -17 5 -22 4 -16 -5 6 -9 4 -11 -4 -6 -7 5 -10 11 -7 14 3 3 -3 12 -15
20 -19 13 -19 15 -4 32 9 10 14 25 11 32 -4 7 -1 5 6 -4 11 -15 13 -15 26 0z"/>
<path d="M1875 992 c-8 -8 -6 -32 3 -32 4 0 12 8 19 18 9 15 8 19 -3 19 -8 0
-16 -3 -19 -5z"/>
<path d="M1475 1020 c3 -5 8 -10 11 -10 2 0 4 5 4 10 0 6 -5 10 -11 10 -5 0
-7 -4 -4 -10z"/>
<path d="M2481 1021 c-7 -5 -9 -11 -5 -14 5 -3 15 1 22 9 14 16 5 18 -17 5z"/>
<path d="M2650 1026 c0 -2 8 -10 18 -17 15 -13 16 -12 3 4 -13 16 -21 21 -21
13z"/>
<path d="M2115 1010 c-3 -5 -1 -10 4 -10 6 0 11 5 11 10 0 6 -2 10 -4 10 -3 0
-8 -4 -11 -10z"/>
<path d="M2550 1010 c0 -5 5 -10 10 -10 6 0 10 5 10 10 0 6 -4 10 -10 10 -5 0
-10 -4 -10 -10z"/>
<path d="M1496 1001 c-3 -4 6 -6 19 -3 14 2 25 6 25 8 0 8 -39 4 -44 -5z"/>
<path d="M2501 1006 c2 -2 15 -9 29 -15 24 -11 24 -11 6 3 -16 13 -49 24 -35
12z"/>
<path d="M2595 990 c-3 -5 -1 -10 4 -10 6 0 11 5 11 10 0 6 -2 10 -4 10 -3 0
-8 -4 -11 -10z"/>
<path d="M1433 975 c0 -8 4 -12 9 -9 5 3 6 10 3 15 -9 13 -12 11 -12 -6z"/>
<path d="M1595 981 c-4 -7 0 -8 11 -4 12 4 15 3 10 -5 -4 -7 -2 -12 4 -12 14
0 8 22 -7 27 -6 2 -14 -1 -18 -6z"/>
<path d="M1356 972 c-3 -5 1 -9 9 -9 8 0 12 4 9 9 -3 4 -7 8 -9 8 -2 0 -6 -4
-9 -8z"/>
<path d="M1496 968 c3 -5 10 -6 15 -3 13 9 11 12 -6 12 -8 0 -12 -4 -9 -9z"/>
<path d="M2446 967 c3 -10 9 -15 12 -12 3 3 0 11 -7 18 -10 9 -11 8 -5 -6z"/>
<path d="M2515 970 c-3 -5 -1 -10 4 -10 6 0 11 5 11 10 0 6 -2 10 -4 10 -3 0
-8 -4 -11 -10z"/>
<path d="M2630 969 c0 -5 5 -7 10 -4 6 3 10 8 10 11 0 2 -4 4 -10 4 -5 0 -10
-5 -10 -11z"/>
<path d="M2430 951 c0 -6 4 -13 10 -16 6 -3 7 1 4 9 -7 18 -14 21 -14 7z"/>
<path d="M1626 933 c-6 -14 -5 -15 5 -6 7 7 10 15 7 18 -3 3 -9 -2 -12 -12z"/>
<path d="M2370 935 c0 -8 4 -15 10 -15 5 0 7 7 4 15 -4 8 -8 15 -10 15 -2 0
-4 -7 -4 -15z"/>
<path d="M1570 932 c0 -4 10 -9 22 -9 18 -2 20 0 8 7 -18 12 -30 13 -30 2z"/>
<path d="M1830 928 c0 -4 7 -8 15 -8 8 0 15 4 15 8 0 5 -7 9 -15 9 -8 0 -15
-4 -15 -9z"/>
<path d="M1718 923 c7 -3 16 -2 19 1 4 3 -2 6 -13 5 -11 0 -14 -3 -6 -6z"/>
<path d="M1945 920 c-3 -5 -3 -15 0 -20 4 -6 1 -17 -5 -25 -9 -11 -9 -15 -1
-15 6 0 11 5 11 11 0 5 4 8 9 4 5 -3 16 2 24 10 9 9 17 11 20 5 3 -6 4 -5 3 2
-2 7 -15 12 -30 12 -19 -1 -26 3 -22 12 6 16 0 19 -9 4z"/>
<path d="M2393 915 c-10 -11 -9 -13 6 -12 11 1 17 7 14 14 -6 16 -5 16 -20 -2z"/>
<path d="M1676 905 c7 -18 6 -19 -12 -5 -18 14 -18 14 -5 -3 10 -12 17 -15 25
-7 7 7 6 14 -3 23 -10 10 -11 8 -5 -8z"/>
<path d="M2202 908 c-7 -7 -12 -16 -12 -21 0 -5 7 -1 16 8 9 9 14 18 12 20 -2
3 -10 -1 -16 -7z"/>
<path d="M1615 901 c-3 -5 -2 -12 3 -15 5 -3 9 1 9 9 0 17 -3 19 -12 6z"/>
<path d="M1829 888 c-5 -22 -3 -26 14 -22 15 3 18 -1 14 -18 -4 -15 -3 -18 5
-10 12 12 3 46 -11 37 -5 -3 -11 5 -13 17 -3 22 -4 21 -9 -4z"/>
<path d="M1860 895 c14 -17 30 -20 30 -4 0 5 -4 7 -10 4 -5 -3 -10 -1 -10 4 0
6 -5 11 -11 11 -8 0 -8 -5 1 -15z"/>
<path d="M1716 892 c-3 -5 1 -9 9 -9 8 0 15 4 15 9 0 4 -4 8 -9 8 -6 0 -12 -4
-15 -8z"/>
<path d="M2285 890 c-3 -6 1 -7 9 -4 18 7 21 14 7 14 -6 0 -13 -4 -16 -10z"/>
<path d="M2439 883 c-13 -16 -12 -17 4 -4 16 13 21 21 13 21 -2 0 -10 -8 -17
-17z"/>
<path d="M2470 890 c0 -5 5 -10 10 -10 6 0 10 5 10 10 0 6 -4 10 -10 10 -5 0
-10 -4 -10 -10z"/>
<path d="M1895 869 c-4 -6 -4 -13 -1 -16 3 -4 6 -1 6 6 0 7 5 9 12 5 7 -4 8
-3 4 4 -9 15 -13 15 -21 1z"/>
<path d="M2050 870 c0 -5 5 -10 11 -10 5 0 7 5 4 10 -3 6 -8 10 -11 10 -2 0
-4 -4 -4 -10z"/>
<path d="M2095 870 c-3 -5 -3 -10 2 -11 4 0 -1 -4 -11 -8 -19 -7 -19 -8 1 -13
15 -4 20 -1 18 11 -1 9 7 19 19 23 21 6 21 6 -1 7 -12 1 -25 -3 -28 -9z"/>
<path d="M2310 870 c14 -9 7 -14 -13 -11 -5 1 -6 -3 -2 -9 5 -8 11 -8 21 1 15
12 10 29 -9 29 -7 0 -6 -4 3 -10z"/>
<path d="M2196 853 c-6 -14 -5 -15 5 -6 7 7 10 15 7 18 -3 3 -9 -2 -12 -12z"/>
<path d="M2221 847 c-13 -21 -12 -21 5 -5 10 10 16 20 13 22 -3 3 -11 -5 -18
-17z"/>
<path d="M2406 828 c3 -5 10 -6 15 -3 13 9 11 12 -6 12 -8 0 -12 -4 -9 -9z"/>
<path d="M1815 790 c3 -5 8 -10 11 -10 2 0 4 5 4 10 0 6 -5 10 -11 10 -5 0 -7
-4 -4 -10z"/>
<path d="M2105 790 c-3 -6 1 -7 9 -4 18 7 21 14 7 14 -6 0 -13 -4 -16 -10z"/>
<path d="M2230 786 c0 -2 8 -10 18 -17 15 -13 16 -12 3 4 -13 16 -21 21 -21
13z"/>
<path d="M1680 770 c-9 -6 -10 -10 -3 -10 6 0 15 5 18 10 8 12 4 12 -15 0z"/>
<path d="M1836 757 c3 -10 9 -15 12 -12 3 3 0 11 -7 18 -10 9 -11 8 -5 -6z"/>
<path d="M2170 756 c0 -2 7 -7 16 -10 8 -3 12 -2 9 4 -6 10 -25 14 -25 6z"/>
<path d="M1633 735 c0 -8 4 -12 9 -9 5 3 6 10 3 15 -9 13 -12 11 -12 -6z"/>
<path d="M1959 723 c-13 -16 -12 -17 4 -4 16 13 21 21 13 21 -2 0 -10 -8 -17
-17z"/>
</g>
</svg>
